<svg version="1" xmlns="http://www.w3.org/2000/svg" width="1924" height="1924" viewBox="0 0 1443.000000 1443.000000"><path d="M696.4 535c-56.1 4.7-107.8 35.7-138.7 83.6-9.8 15.2-18.7 35.6-23 52.9-4.6 18.3-5.2 23.9-5.1 47 0 19.9.3 23.2 2.7 34.6 15.9 75.2 73 130.7 148.9 144.5 12 2.2 37.2 2.9 49.8 1.5 75.1-8.7 136.5-60.5 156.9-132.6 9.6-33.9 8.7-72.8-2.5-106.5-23.2-69.8-85.2-118.6-158.9-124.9-13.1-1.2-16.6-1.2-30.1-.1zm40.5 5.6c58.7 8.6 108 44.4 134.8 97.8 6.6 13.2 12.3 30.1 15.5 45.7 1.9 9.7 2.3 14.5 2.3 32.4 0 22.5-.7 28.6-5.5 47.1-10.9 41.5-38.3 79.4-74.7 103.1-10.4 6.8-30.1 16.3-42 20.2-29.7 9.8-63.4 11.4-94.1 4.5-15.8-3.5-26.4-7.3-41.7-15-18-8.9-29.6-17.5-45.5-33.4-15.9-15.9-24.4-27.5-33.5-45.5-18.4-36.7-23.7-77.1-15.5-116.7 15.2-73 74.1-128.7 148.5-140.2 12.5-1.9 38.3-2 51.4 0z"/><path d="M705 555c0 .6 2.8 1 6.5 1s6.5-.4 6.5-1-2.8-1-6.5-1-6.5.4-6.5 1zM686.1 555.9c-1.9.3-3.6 1.2-3.9 2-.3 1 .5 1.2 3.9.6 6.2-.9 7.9-1.5 7.9-2.6 0-1-2.5-1-7.9 0zM729 555.9c0 1.1 1.2 1.5 8.3 2.6 2.9.5 3.7.3 3.7-1 0-.9-.9-1.5-2.2-1.5-1.3 0-4-.3-6-.6-2.5-.4-3.8-.3-3.8.5zM664.6 560.9c-2.8 1-5.2 2.3-5.4 3.1-.3.9.1 1.1 1.4.6 1.1-.4 3.8-1.2 6.2-1.9 4-1.1 5.1-2.1 3.5-3-.5-.2-3 .3-5.7 1.2zM752 560.2c0 .8 1.9 1.9 4.3 2.5 2.3.7 5 1.5 6 1.8 1.1.5 1.7.2 1.7-.7 0-.9-1.8-2-4.2-2.7-2.4-.7-5.1-1.5-6-1.7-1.1-.3-1.8 0-1.8.8zM641.8 569.6c-2.7 1.3-4.8 2.9-4.8 3.4 0 1.3 0 1.3 6.4-1.5 3.2-1.4 5.4-3 5.1-3.5-.8-1.4-1.3-1.3-6.7 1.6zM774.5 567.9c-.3.5 2 2.1 5.1 3.5 6.4 3 6.4 2.9 6.4 1.6 0-.5-2.2-2.1-5-3.5-5.6-2.8-5.7-2.8-6.5-1.6zM694 574c-64.2 9-113.9 56.6-124.5 119.5-2.2 12.8-2.3 34.9-.2 47 8.1 46 37 85.1 78.2 105.8 10.4 5.2 23.3 9.7 35.5 12.3 12 2.7 44.8 2.7 57 .1 27.8-6 51.5-18.4 71.4-37.7 21.8-21 35.4-45.5 41.8-75.3 3.1-14.5 3.1-42.7 0-56.9-4.8-21.9-13.4-41-26.2-58-21.2-28.3-51.2-47.3-86.4-54.9-10.5-2.2-36.4-3.3-46.6-1.9zm38.5 73c24.7 7.8 41.9 25.1 49.7 50 1.9 6.4 2.3 9.5 2.2 21 0 11.8-.4 14.5-2.7 21.5-3.9 11.7-9.1 19.9-18.7 29.5-20.2 20.2-47.9 26.7-75 17.5-37.2-12.6-57.6-52.5-46.4-90.6 7.2-24.3 29.2-44.6 54.8-50.5 9-2 27.1-1.2 36.1 1.6zM621.7 581c-4.1 2.6-6.1 5-4 5 1.6 0 10.2-6.3 9.7-7.1-.7-1.2-.4-1.3-5.7 2.1zM795.7 578.7c-.6.5 8.4 7.3 9.8 7.3 1.7 0-.1-2.3-3.9-5-4.9-3.3-5-3.3-5.9-2.3zM602.5 596c-2.1 2.2-3.6 4.2-3.2 4.6.8.8 9.7-6.7 9.1-7.8-.9-1.4-1.9-.9-5.9 3.2zM815 592.8c0 .4 1.8 2.6 4 4.7 2.8 2.8 4.3 3.6 5.1 2.8.7-.7-.2-2.1-3.4-4.7-4.5-3.6-5.7-4.3-5.7-2.8zM831.7 608.7c-.7 1.2 6.9 9.6 8.2 9.2.6-.2-.5-2.5-2.6-5.1-3.8-4.7-4.8-5.4-5.6-4.1zM585.6 613.4c-2.3 2.8-3.2 4.7-2.5 5.1.5.4 1.1.5 1.3.4.1-.2 1.6-2.1 3.4-4.2 1.8-2.1 3.2-4.2 3.2-4.7 0-2.1-1.9-.8-5.4 3.4zM572.3 632.2c-1.8 2.8-3 5.5-2.7 6 .8 1.3 2 .2 4.9-4.8 3.8-6.5 1.7-7.6-2.2-1.2zM846 627.6c0 1.7 5.7 10.4 6.8 10.4 1.8 0 1.5-.8-1.9-6.2-2.7-4.2-4.9-6.1-4.9-4.2zM561.5 653.1c-1.3 2.9-2.1 5.7-1.8 6.2.8 1.3 1.9-.2 4.2-5.5 2.8-6.6.7-7.2-2.4-.7zM859.1 652.7c2.2 5.2 3.5 7 4.5 6.1.9-1-3.7-10.8-5.2-10.8-1 0-.9 1.1.7 4.7zM553.8 675.9c-1.3 4.9-1.3 6.1-.3 6.1 1.7 0 4.1-9.8 2.8-11.1-.7-.7-1.6 1.1-2.5 5zM866 670.7c.1 2.8 2.8 10.7 3.8 11.1 1.5.5 1.5-.1-.1-6.2-.7-2.7-1.8-5.1-2.5-5.4-.7-.2-1.2 0-1.2.5zM871.4 696.7c.3 2.1.6 4.8.6 6 0 1.3.6 2.3 1.3 2.3 1.3 0 1.3-4.1.1-9.8-.8-3.9-2.7-2.5-2 1.5zM549.6 697.1c-.9 4.5-.7 8.9.3 8.9s2.1-4.8 2.1-9.1c0-3.9-1.6-3.7-2.4.2zM548.6 717.8c-.8 1.4.6 12.2 1.5 11.6 1.2-.7 1.1-12.4 0-12.4-.6 0-1.2.4-1.5.8zM872.6 719.2c-1.2 4.5-.7 9.8.9 9.8 1.2 0 1.5-1.3 1.5-6 0-6-1.2-8-2.4-3.8zM550.3 743.2c.3 1.3.9 4 1.3 6.1.3 2.1 1.1 3.6 1.6 3.5 1.2-.4 1.2-.3.3-6.6-.5-3.7-1.1-5.2-2.2-5.2s-1.4.7-1 2.2zM870.6 742.7c-1.2 4.6-1.7 10.3-.8 10.3 1.3 0 1.9-1.6 2.7-7.4.5-3 .4-4.6-.3-4.6-.6 0-1.3.8-1.6 1.7zM556 765.3c0 .7.7 3.5 1.6 6.1 1.1 3.1 2 4.4 2.6 3.8 1.2-1.2-1.8-11.2-3.3-11.2-.5 0-.9.6-.9 1.3zM864.2 768.2c-.7 2.4-1.5 4.9-1.8 5.5-.3.7.1 1.3.9 1.3s1.9-1.8 2.6-4.1c.7-2.3 1.5-4.7 1.8-5.5.3-.8-.1-1.4-.9-1.4s-1.9 1.9-2.6 4.2zM564 786.5c0 1.5 5.2 10.5 6 10.5 1.6 0 1.2-1.9-1.6-6.6-2.2-3.8-4.4-5.7-4.4-3.9zM854.5 790.9c-1.6 3.3-2.1 5.2-1.4 5.6.6.4 1.2.5 1.3.4.9-1 4.6-9 4.6-9.9 0-2.5-2.2-.6-4.5 3.9zM576.6 806.9c-.8 1.2 5.1 10.1 6.6 10.1s.8-2.1-1.9-5.8c-3.9-5.4-4-5.5-4.7-4.3zM842.6 810.7c-1.9 2.6-3.2 5.1-3 5.5.8 1.3 2.1.1 5.4-4.7 4.1-6 1.9-6.8-2.4-.8zM590.6 825.8c-.3.5 1.4 2.8 3.8 5.1 5.7 5.5 7.5 3.7 2-2-3.9-4-4.9-4.5-5.8-3.1zM827.5 829c-2.1 2.2-3.6 4.3-3.2 4.7.8.7 8.7-6.5 8.7-7.9 0-1.7-1.7-.7-5.5 3.2zM607.6 841.9c-.8 1.2 8.6 8.1 9.8 7.4.5-.4-1.1-2.3-3.5-4.4-4.7-4.1-5.5-4.4-6.3-3zM809.7 844.7c-2.6 1.9-4.4 3.9-4.1 4.4.6 1.1 2.8 0 7.3-3.9 5-4.2 2.4-4.6-3.2-.5zM627 855.9c0 1 8.3 6.1 9.9 6.1 2.6 0 .7-2.2-3.9-4.5-5.5-2.8-6-2.9-6-1.6zM789.7 857.9c-2.8 1.7-4.4 3.2-3.8 3.5 1.4.9 11.2-4.4 10.5-5.5-.8-1.3-1.4-1.1-6.7 2zM769.3 867.4c-2.9 1.1-5.3 2.6-5.3 3.3 0 1 1.4.8 5.2-.7 2.8-1.1 5.5-2.3 6.1-2.9 1.8-1.8-1-1.7-6 .3zM648 866.9c0 .4 1.9 1.5 4.3 2.4 5.8 2.2 6.9 2.4 7.3 1.2.2-.6-1.8-1.8-4.5-2.8-5.4-1.9-7.1-2.1-7.1-.8zM670.5 874c-.7 1.2.1 1.5 6.8 2.8 2.6.5 5 .6 5.2.2.7-1.1-.3-1.6-4.5-2.5-1.9-.3-4.2-.9-5.2-1.1-.9-.3-1.9 0-2.3.6zM745.8 874.3c-5.5 1.2-7 4.1-1.5 3 6.1-1.2 8.1-1.9 8.5-3.1.4-1.4-.4-1.3-7 .1zM694 878.4c0 1.3 1.1 1.6 6 1.6 3.3 0 6-.4 6-1s-1.7-1-3.7-1c-2.1 0-4.8-.3-6-.6-1.7-.5-2.3-.2-2.3 1zM722.5 877.7c-7 .7-6.6 2.4.4 2.1 4-.2 6.6-.8 6.9-1.6.2-.7-.4-1.1-1.5-1-1 .1-3.6.3-5.8.5zM19.4 557.7c.4 1 13.8 38.5 29.8 83.3 15.9 44.8 31.6 88.7 34.8 97.5 13.5 37.5 41.5 116 45.4 127.5l4.3 12.5H161.4l3.3-9c15.7-43.9 99.1-272.6 100.6-275.7 1.1-2.5 3.2 2.7 29.6 75.5 35.1 97 68.2 188.3 72.4 200.2l3.3 9H398.3l5.3-15.5c2.9-8.5 12.7-36.2 21.7-61.5C474.8 662.7 512 557.7 512 556.9c0-.5-5.5-.9-12.3-.9h-12.3l-27.1 76.2c-15 42-27.5 77.3-27.8 78.6-.8 2.8-3.5 4.2-15.5 8-19.5 6.2-36.6 7.8-51.8 4.6-10.7-2.2-25.6-7.1-28-9.2-1.1-1-11.1-27.4-25.7-67.7-13.1-36.3-25.8-71.5-28.2-78.3l-4.5-12.2h-12.3c-10.8 0-12.4.2-13 1.7-.3 1-13.3 36.4-28.7 78.8-15.4 42.3-28.6 77.3-29.2 77.8-.6.4-5.9 2.3-11.8 4.2-15.5 5.1-27.1 6.9-39.8 6.2-17-.9-40.2-7.9-42.7-12.8-.7-1.3-13.3-36.8-28.2-78.9l-26.9-76.5-13.7-.3c-12.8-.2-13.7-.1-13.1 1.5zM918.2 557.7c.3 1 10.1 28.6 21.8 61.3 11.7 32.7 23.4 65.6 26 73 2.7 7.4 9.1 25.4 14.3 40 33.4 93.3 44 123 47.8 134.2l4.4 12.8h27.4l1.9-5.3c1.1-2.8 3.5-9.5 5.3-14.7 1.8-5.2 11.7-32.7 22.1-61 10.3-28.3 31.5-86.3 47-128.8 15.5-42.4 28.4-77.2 28.7-77.2.3 0 13.8 36.4 29.8 80.8 16.1 44.4 37.5 103.4 47.6 131.2 10.1 27.8 20.3 56 22.6 62.7l4.3 12.3h27.5l3.3-9.8c1.8-5.3 12.1-34.2 22.7-64.2 65.8-185 88.3-248.3 88.3-248.6 0-.4-25-.6-25-.2 0 .2-12.8 35.8-28.3 79.3l-28.2 79-5.7 2.2c-3 1.3-10.2 3.5-15.9 5-9.2 2.5-12.1 2.8-25.4 2.7-13.1 0-16.3-.4-24.9-2.8-11.5-3.1-24.6-8.9-24.6-10.8 0-.7-12.5-35.8-27.7-78.1l-27.8-76.7-12.5.2-12.4.3-26.3 72c-14.5 39.6-27.3 75.1-28.5 78.9-2.1 6.4-2.6 7.1-6.5 8.8-2.3 1-9.5 3.3-16 5-10.8 3-13.1 3.2-26.3 3.2-12.4 0-15.9-.4-24.1-2.6-11-3-24.9-8.5-25.4-10.2-.4-1.2-17.4-49.6-26.3-74.6-3-8.5-7.4-21.1-9.8-28-2.5-6.9-7.6-21.6-11.6-32.8l-7.1-20.2h-13.5c-12.3 0-13.4.1-13 1.7z"/></svg>