<svg xmlns="http://www.w3.org/2000/svg" xmlns:xlink="http://www.w3.org/1999/xlink" viewBox="0 0 750 552.25"><defs><style>.cls-1,.cls-13,.cls-15,.cls-17,.cls-19,.cls-23,.cls-27,.cls-33,.cls-37,.cls-42,.cls-43,.cls-44,.cls-45,.cls-6,.cls-7{fill:none;}.cls-2{isolation:isolate;}.cls-3{fill:#fff;}.cls-4{opacity:0.45;}.cls-5{fill:#d2def9;}.cls-27,.cls-6,.cls-7{stroke:#fff;}.cls-19,.cls-23,.cls-27,.cls-37,.cls-42,.cls-43,.cls-44,.cls-45,.cls-6{stroke-miterlimit:10;}.cls-44,.cls-45,.cls-6,.cls-7{stroke-width:1.5px;}.cls-13,.cls-15,.cls-17,.cls-33,.cls-7{stroke-linejoin:round;}.cls-8{fill:#e9f1ff;}.cls-9{fill:#f777ba;}.cls-10{fill:#0b0b3a;}.cls-11{fill:#18277a;}.cls-12{fill:#212237;}.cls-13,.cls-15{stroke:#cc328a;}.cls-13,.cls-19,.cls-33,.cls-37,.cls-42,.cls-43{stroke-width:0.75px;}.cls-14{fill:#ff855a;}.cls-15,.cls-17{stroke-width:0.5px;}.cls-16{fill:#00276f;}.cls-17{stroke:#00276f;stroke-linecap:round;}.cls-18{fill:#ff9357;}.cls-19{stroke:#a52f2d;}.cls-20{fill:#83a3fc;}.cls-21{clip-path:url(#clip-path);}.cls-22{opacity:0.19;mix-blend-mode:screen;}.cls-23,.cls-44{stroke:#91abe5;}.cls-23,.cls-27{stroke-width:11px;}.cls-24{fill:#ffc7ca;}.cls-25{clip-path:url(#clip-path-2);}.cls-26{opacity:0.25;}.cls-28{fill:#b5c8f7;}.cls-29{clip-path:url(#clip-path-3);}.cls-30{fill:#9fbfff;}.cls-31{clip-path:url(#clip-path-4);}.cls-32{opacity:0.35;}.cls-33{stroke:#1a3987;}.cls-34{fill:#ffe1ad;}.cls-35{fill:#cc328a;}.cls-36{fill:#2a2a68;}.cls-37{stroke:#5565aa;}.cls-38{fill:#2e7efa;}.cls-39{fill:#4376cf;}.cls-40{fill:#9cd0ff;}.cls-41{fill:#816fc2;}.cls-42{stroke:#4c3f89;}.cls-43{stroke:#d19b4b;}.cls-45{stroke:#ff9c94;}</style><clipPath id="clip-path"><path class="cls-1" d="M485.2,311.26a3,3,0,0,0-2.53,4.83,19.6,19.6,0,0,1,4.51,13.78c-.83,11.7-12.3,20.42-25.63,19.48s-23.46-11.19-22.63-22.89a19.62,19.62,0,0,1,6.4-13,3,3,0,0,0-1.83-5.14L411.11,306A12.28,12.28,0,0,0,398,317.42l-2.22,31.34a3,3,0,0,0,4.71,2.63,19.38,19.38,0,0,1,12.63-3.65c11.7.83,20.42,12.31,19.48,25.63S421.39,396.83,409.69,396a19.4,19.4,0,0,1-12-5.38,3,3,0,0,0-5,1.93l-2.21,31.35A12.29,12.29,0,0,0,401.84,437l106.48,7.53a12.28,12.28,0,0,0,13.13-11.4L529,326.68a12.29,12.29,0,0,0-11.39-13.13Z"/></clipPath><clipPath id="clip-path-2"><path class="cls-1" d="M355.73,260.41C344.09,259,336,247,337.67,233.77s12.45-22.82,24.09-21.36a19.56,19.56,0,0,1,12.32,6.73,3,3,0,0,0,5.18-1.61l4-31.83A12.3,12.3,0,0,0,372.6,172L266.68,158.66A12.29,12.29,0,0,0,253,169.32L239.64,275.24A12.29,12.29,0,0,0,250.3,289L282.66,293a3,3,0,0,0,2.78-4.71,19.62,19.62,0,0,1-3.86-14.17C283,262.52,295,254.44,308.23,256.1s22.81,12.45,21.35,24.09A19.67,19.67,0,0,1,322.33,293a3,3,0,0,0,1.52,5.24l32.37,4.07A12.3,12.3,0,0,0,370,291.62l4-31.84a3,3,0,0,0-4.63-2.83A19.47,19.47,0,0,1,355.73,260.41Z"/></clipPath><clipPath id="clip-path-3"><path class="cls-1" d="M509.81,165.09,403.07,164a12.3,12.3,0,0,0-12.42,12.17l-.33,31.59a3,3,0,0,1-4.89,2.25,19.44,19.44,0,0,0-12.53-4.84c-11.73-.12-21.35,10.61-21.49,24s9.26,24.28,21,24.41A19.5,19.5,0,0,0,385,249a3,3,0,0,1,4.85,2.35l-.33,31.59a12.3,12.3,0,0,0,12.17,12.42l32.65.34a3,3,0,0,1,2.11,5,19.67,19.67,0,0,0-5.77,13.57c-.13,11.72,10.6,21.34,24,21.48s24.29-9.25,24.41-21a19.66,19.66,0,0,0-5.49-13.68,3,3,0,0,1,2.21-5l32.66.34a12.3,12.3,0,0,0,12.42-12.17L522,177.51A12.3,12.3,0,0,0,509.81,165.09Z"/></clipPath><clipPath id="clip-path-4"><path class="cls-1" d="M391.83,346.72a19.46,19.46,0,0,0-12.63,5.73,3,3,0,0,1-5-2l-1.79-31.9a12.3,12.3,0,0,0-13-11.59l-32.49,1.82a3,3,0,0,1-2.45-4.88,19.62,19.62,0,0,0,4.77-13.79c-.66-11.71-12-20.6-25.34-19.85s-23.62,10.84-23,22.55A19.58,19.58,0,0,0,287.21,306a3,3,0,0,1-1.89,5.12L252.82,313a12.3,12.3,0,0,0-11.58,13l6,106.58a12.29,12.29,0,0,0,13,11.58l106.58-6a12.29,12.29,0,0,0,11.59-13l-1.79-31.9a3,3,0,0,1,4.79-2.53,19.53,19.53,0,0,0,13.2,4.29c11.71-.66,20.59-12,19.85-25.34S403.54,346.06,391.83,346.72Z"/></clipPath></defs><g class="cls-2"><g id="BACKGROUND"><rect class="cls-3" width="750" height="500"/></g><g id="OBJECTS"><g class="cls-4"><path class="cls-5" d="M73.6,146s.14,0,.16,0h72.66c11.43,0,15-.37,26.37,0,.13-7-1.83-13.68-5.2-17.23a12.32,12.32,0,0,0-11.41-3.49c-4.92,1.3-8.26,4.6-11.45,7-1.13-9.7-5.13-18.53-9.44-20.46-7.41-3.32-15.16,1.94-18.64,7.05a31.89,31.89,0,0,0-5,14.28c-4.65-5.14-15.06-9.06-18.81-.91-1.47,3.21-1.35,6.89-1.2,10.41A21.63,21.63,0,0,0,73.6,146Z"/></g><g class="cls-4"><path class="cls-5" d="M608.69,83.18c-1.4-5.7-14.63-14-21.7-9-2.17-10.84-4.2-17.6-11.29-22.94s-18.92,1.65-20.82,16.26c-1.89-6-11.56-14.11-19.32-7.28-7.18,6.32-7.9,16.91-7.15,23Z"/></g><g class="cls-4"><path class="cls-5" d="M700.73,158.9c-2.18-5.39-6.32-8.28-11.2-8.82-6.17-.69-12.42,2.85-12.42,2.85s2.32-8.9-.83-15.9c-2.14-4.78-5.56-9.27-10.3-10.45-4.91-1.22-10.12,1.17-13.78,5s-6,8.81-8.12,13.82c-1.09-3.56-2.53-7.54-5.74-8.86s-7.16,1-8.9,4.37-1.82,7.46-1.59,11.33c-3.85-2.31-8.76-3-12.62-.68a10.26,10.26,0,0,0-4.6,7.38Z"/></g><path class="cls-5" d="M255.07,280.56c-20.19-6.91-37.82-20.45-50.95-37.27s-27.92-53.74-25.38-84.89c58.18,17.26,81.79,71.29,85.31,104.06"/><path class="cls-6" d="M178.74,158.4s9.58,75,76.84,116.37"/><path class="cls-6" d="M178.74,158.4s39.69,71.11,83.19,114.36"/><path class="cls-6" d="M178.74,158.4s58.6,46.53,85.91,110.22"/><path class="cls-5" d="M255.27,404.4c-23,8.56-48.36,8.84-72,2.57s-62.84-30.58-82.41-62.41c56.19-19.13,123.59,6.86,149.76,35.68"/><path class="cls-7" d="M100.88,344.56s61.24,64.79,150.78,53.9"/><path class="cls-7" d="M100.88,344.56S186.48,383,256,391.74"/><path class="cls-7" d="M100.88,344.56s85.35.55,154.62,41.15"/><path class="cls-8" d="M276.84,246.65c-19.47-14.47-33.34-35.34-40.85-58.29s-8.43-68.55,7.43-101.89c46.08,36.3,60.78,106.15,51,143.36"/><path class="cls-7" d="M243.42,86.47s-20.78,85.62,36.4,154"/><path class="cls-7" d="M243.42,86.47s14.2,91.62,44.29,154"/><path class="cls-7" d="M243.42,86.47s45.44,71.06,49,150.33"/><path class="cls-5" d="M453.24,235.91c19.64-3.74,37.79-14,52.2-27.81s33-46.14,34.8-75.36C484,141,454.93,188,447.31,217.93"/><path class="cls-7" d="M540.24,132.74s-18.83,68.25-86.7,97.73"/><path class="cls-7" d="M540.24,132.74s-46.25,60.68-92.32,95"/><path class="cls-7" d="M540.24,132.74s-60.52,35.38-94.3,90.82"/><path class="cls-5" d="M508.21,394.55c28.73,5.45,58.91,1.29,85.95-9.83s69.7-45.05,87.79-83.86c-81-18.92-145.74,29.4-172.16,66"/><path class="cls-7" d="M682,300.86s-62.25,82.77-170.41,86.45"/><path class="cls-7" d="M682,300.86s-85.2,56.93-172.48,73"/><path class="cls-7" d="M682,300.86s-101.33,15.66-177.05,73"/><path class="cls-8" d="M427.86,228.26c24.73-10.64,45-29.63,59-52.48s26.65-71.85,18.06-111.91c-59,27.4-92.79,99-91.71,141.73"/><path class="cls-7" d="M504.94,63.87s.52,97.76-78.72,156.94"/><path class="cls-7" d="M504.94,63.87s-38.78,95.29-87.22,154.88"/><path class="cls-7" d="M504.94,63.87S437.69,129,413.52,213.62"/><path class="cls-8" d="M251.29,366.69c-13.39,2.08-36.17,5.19-48.77-3.22-7-4.65-8.24-13.24-11-20.8-4.66-12.95-14.23-20.56-26.92-22.77-5.08-.89-10.45-3.18-12.89-8-3.62-7.23.84-16.52-2.07-24.09-1.56-4.07-5-6.95-7.75-10.19-6.77-7.83-8.45-19.42-8.45-19.42a31.86,31.86,0,0,0,17.34-.27c5.88-1.84,12.26-3,18.44-2,4.83.76,8.46,3.29,11.65,7.13,3.75,4.52,6.9,7.93,12.32,9.81,8.37,2.9,29.12-4.11,31.39,7.9.62,3.27-.15,6.81,1.36,9.87,2.73,5.55,9.34,2.73,13.85,4.14,6.92,2.17,14.5,7.16,17.47,13.66,7.08,15.5,6.75,36.87,2.76,53.71"/><path class="cls-7" d="M134.31,258.39C156.9,282.8,191.08,292,213.1,317c6.6,7.5,11.89,16.19,18.12,24.05s13.73,15.06,22.9,18.15"/><path class="cls-7" d="M150,305.14c11.81,1.27,29.72,1,47.51-2.37,0,0-4.35-22.9-8-31.66"/><path class="cls-7" d="M150.39,297.51c13,.94,23.87.17,39-.45"/><path class="cls-7" d="M148.52,285.84a145.68,145.68,0,0,0,21.06-1"/><path class="cls-7" d="M137.65,271.06c.08.16,3.54.57,11.49.45"/><path class="cls-7" d="M165.12,282.14c.09.06-5.17-16.2-9.27-25.47"/><path class="cls-7" d="M186.32,295.07c-.07-.05-5.21-25.77-10.26-36.52"/><path class="cls-7" d="M176.13,323.86c.4.22,22.63,1.7,40.88-2.16"/><path class="cls-7" d="M211.47,315.16s-2.27-27.5-5.83-41.55"/><path class="cls-7" d="M229.11,291.44c2.59,16.95,2.95,50.6,2.95,50.6s-28.64,3.88-40.5.63"/><path class="cls-7" d="M244.3,354s1-38.08-1.22-58"/><path class="cls-7" d="M193.66,350.22s23.08,3.26,42.53-3.45"/><path class="cls-7" d="M249,357s6.64-30.06,1.77-56.46"/><path class="cls-8" d="M435.69,203c6.09-15.74,16-31.3,9.9-48.68-3.36-9.6-13.64-13.65-21.5-18.83-13.46-8.87-19.47-22.38-18.48-38.34.4-6.38-.71-13.47-5.57-17.64-7.22-6.19-19.05-3.09-26.87-8.5-4.21-2.91-6.55-7.74-9.46-11.94C356.67,48.92,343.92,44,343.92,44a42.09,42.09,0,0,1-5.12,21c-3.72,6.68-6.8,14.14-7.4,21.89-.47,6.06,1.41,11.09,4.9,15.91,4.11,5.68,7.12,10.36,7.76,17.4,1,10.88-12.77,34.32.29,40.07,3.55,1.57,7.8,1.51,10.87,4.1,5.55,4.7.51,12,.87,17.84.55,8.95,4.13,19.38,10.71,24.6,15.7,12.45,40.14,17.35,60.44,16.7"/><path class="cls-7" d="M343.94,45.07c21.55,33.47,22.5,77.24,44.87,110.18,6.71,9.88,15.15,18.46,22.37,28s13.35,20.4,14.33,32.3"/><path class="cls-7" d="M377,132.81s-24.89-11-33.85-17.6"/><path class="cls-7" d="M384.06,74.3c-2.53,16-6.43,29-11.33,47.24"/><path class="cls-7" d="M371.28,69.13a193.82,193.82,0,0,1-7,25.32"/><path class="cls-7" d="M357.45,52.27c.16.13-.33,4.44-2.67,14"/><path class="cls-7" d="M362.46,88.37c0,.11-17-10.3-26.45-17.59"/><path class="cls-7" d="M371.3,117.32c0-.11-27.91-12.73-38.77-21.54"/><path class="cls-7" d="M405,88.37c-2.42,9.24-7.08,33.17-20.95,57"/><path class="cls-7" d="M387.22,152.83s-30.71-9.58-45.73-17.39"/><path class="cls-7" d="M422.35,202.33s-43.69-8.22-65.78-15.9"/><path class="cls-7" d="M432.12,139.92s-2.7,28.82-15.74,50.78"/><path class="cls-8" d="M523.57,340.65c17.38-3.35,36.71-3.23,48.76-18.31,6.66-8.35,4.53-19.73,4.75-29.6.39-16.89,9-29.76,23.76-37.77,5.9-3.2,11.57-8.14,12.57-14.77,1.47-9.87-7.87-18.64-7.42-28.61.24-5.36,3.23-10.13,5.34-15.06,5.1-11.91,2.37-26,2.37-26a44.22,44.22,0,0,1-21.49,7.14c-8,.41-16.35,1.84-23.57,5.62-5.64,3-9.06,7.42-11.4,13.21-2.76,6.82-5.23,12.1-11.14,16.59-9.12,6.92-37.6,7.77-35.43,22.58.59,4,3,7.77,2.41,11.93-1.07,7.56-10.38,7.16-15.35,10.72-7.64,5.47-14.92,14.46-15.89,23.22-2.31,20.88,7,45.32,18.84,63"/><path class="cls-7" d="M612.76,171.17C595,209,556.68,234.19,539.88,272.4c-5,11.47-8,23.74-12.39,35.46s-10.68,23.23-20.71,30.73"/><path class="cls-7" d="M612.78,231.7c-14,6.54-36.23,13.92-59.55,17.69,0,0-4.13-28.22-3.23-39.87"/><path class="cls-7" d="M609.15,223.09c-15.62,6.66-29.36,10.45-48.28,16.25"/><path class="cls-7" d="M606.62,208.86a204.89,204.89,0,0,1-26.38,7.91"/><path class="cls-7" d="M613.89,187.18c0,.22-4.13,2.18-14,5.45"/><path class="cls-7" d="M584.61,211.74c-.08.1-.33-20.87.89-33.29"/><path class="cls-7" d="M563.83,235.72c.07-.09-4.25-31.88-2.47-46.43"/><path class="cls-7" d="M588.32,264.48c-.4.42-27.2,11.68-51.3,15.07"/><path class="cls-7" d="M541.15,269.65s-8.6-32.62-10-50.31"/><path class="cls-7" d="M509.57,249.94c3.83,20.61,17.32,59.47,17.32,59.47s36.92-7.84,50.19-16.67"/><path class="cls-7" d="M516.75,328.42s-17-43.38-22.53-67.28"/><path class="cls-7" d="M577.63,302.34s-27.11,13.66-53.88,14.3"/><path class="cls-7" d="M512.15,333.94s-20.64-31.73-25.56-64.2"/><path class="cls-9" d="M453.11,269.7c2.37,5,12,25.91,14.35,30.88-7.7,2.46-14.76,5.65-22.31,8.53-3.2,4.31,4-4.2,4.28-8.86"/><path class="cls-10" d="M469.64,307.47,465.29,309a16,16,0,0,0-.77-2.12,18.46,18.46,0,0,0-2.73,1.2,3.31,3.31,0,0,0-.48,1.24,2.21,2.21,0,0,1-1.39,1.53l-17.32,6c-2.14.74-3.38-1.76-1.53-3.8,1.68-1.85,5.33-5.87,5.51-6,7.13-1.7,17.95-6.88,19.32-10C468.21,298.24,469.65,307.41,469.64,307.47Z"/><path class="cls-9" d="M451.21,212.94c.38,11.32-.81,34,.73,43.65,1,6.06,11.88,36.19,11.88,36.19l-14.39,7.47s-12.33-19.06-19.36-41.58c-4.55-14.6-4.91-30.68-4.91-43.9"/><path class="cls-9" d="M488.78,246.32c4,3.73,20.72,19.62,24.77,23.35-6.24,5.14-11.61,10.72-17.55,16.2-1.37,5.18,2.11-5.37.69-9.82"/><path class="cls-10" d="M518.14,275.26l-3.49,3a16.29,16.29,0,0,0-1.5-1.68,18.81,18.81,0,0,0-2.09,2.13,3.46,3.46,0,0,0,0,1.33,2.18,2.18,0,0,1-.73,1.93l-13.86,12c-1.72,1.48-3.79-.38-2.83-3,.87-2.34,2.77-7.42,2.9-7.59,6-4.22,14.12-13.05,14.22-16.5C513.38,267.22,518.12,275.2,518.14,275.26Z"/><path class="cls-9" d="M474.74,191.6s-.87,33.35,3.71,41.84c5.41,10,23,25,23,25l-4.72,17.58s-24.65-13.76-37.52-30.3c-9.77-12.55-10.23-52.21-10.23-52.21"/><path class="cls-11" d="M473.38,163.73c17.37,13.4,15.95,67,15.95,67s-19.31,5.07-35.08,5.07a246.4,246.4,0,0,1-32.2-2.51c1-46.12,9.14-58.11,13.75-66"/><path class="cls-12" d="M441,90.51s3.91,11.41,3.28,14.07-9.27,1.92-11.48,1.81c-.19-5.81,1.75-14,1.75-14"/><path class="cls-9" d="M442.29,103.94l.93,6.35s4.62,3,8.5,1.41c4.09-1.66,3.87-3.89,3.87-3.89l-4.9-11.65"/><path class="cls-9" d="M435.8,92.77c-.07,8.19,1.4,14.61,6.8,14.19,5.7-.43,9.93-5.12,7.89-11.51C448.34,88.74,436.28,88,435.8,92.77Z"/><path class="cls-13" d="M442.8,107.43a9.34,9.34,0,0,0,7.61-5.7"/><polygon class="cls-14" points="449.62 95.11 449.62 95.1 449.62 95.11 449.62 95.11"/><path class="cls-14" d="M449.58,95.11v.07s.07,0,.08,0v-.07s-.07,0-.07,0Z"/><path class="cls-12" d="M444.3,92.17c-4.63,1.22-7.91,1-11-.08.49-2.77,2.18-6.72,7.34-6.84a8.94,8.94,0,0,1,8.93-1.75A11.58,11.58,0,0,1,456.23,89c2.61,4.41,3.16,11.09,3.11,14.79a50.32,50.32,0,0,1-10,1.83C449.45,105.66,447.75,94.58,444.3,92.17Z"/><path class="cls-9" d="M447,97.64a1.43,1.43,0,0,1,.73-1.3c1.14-.68,2.23.67,2.34,1.9a3.3,3.3,0,0,1-.46,2.12c-.52.93-1.39,1.29-2.09.45"/><path class="cls-15" d="M440.06,97.14s-.95,3.12-.58,3.81,2.14.27,2.14.27"/><path class="cls-3" d="M440,102.67l4.95-.71a3.18,3.18,0,0,1-2.94,2.92C440,105,440,102.67,440,102.67Z"/><path class="cls-16" d="M437.85,96.78a4.77,4.77,0,0,0-.06.76.4.4,0,0,0,.79,0,6.31,6.31,0,0,0-.07-.76c-.05-.32-.62-.33-.66,0Z"/><path class="cls-17" d="M439.08,95.31a1.28,1.28,0,0,0-1.84.3"/><path class="cls-16" d="M443.61,96.57c0,.22,0,.44,0,.67,0,.51.83.5.79,0a6.32,6.32,0,0,0-.11-.76c-.09-.4-.65-.27-.68.09Z"/><path class="cls-17" d="M442.9,94.8a2.39,2.39,0,0,1,2.65.29"/><path class="cls-9" d="M438,138.05c-15.72,21.84-47.81,41.46-47.81,41.46l-6.62-8.39s24.05-20.15,38.5-43.29"/><path class="cls-9" d="M386.4,168.9c-2.94,2.56-12.81,8.64-12.6,9.4s3.72-1.32,3.77-.67-5.09,4.23-4.66,5c.58,1,5.64-3,5.64-3s-5.3,4.58-4.54,5.29c.54.51,4.76-2.8,6.55-3.87-1.78,1.4-4.36,4-3.79,4.5s3.5-1.68,5.84-3.25c-1.36,1.11-3.72,3.26-3.21,3.76s8-4.36,14.91-9.2"/><path class="cls-13" d="M378.84,177.55s3.82.1,5.43-.7"/><path class="cls-18" d="M441.39,110.36c-6.86-1.24-13,3.67-15.66,7.94a128.78,128.78,0,0,0-8.34,15.36l16.16,9.73,9.2-28.91"/><path class="cls-18" d="M441.39,110.36c3.21.59,4,1.73,6.25,1a31.46,31.46,0,0,0,7.19-3.37c-2.67.18,8.73,2.26,17.45,11.46,2.93,10.09,3.27,20.12,4.12,46.75a73.33,73.33,0,0,1-40.6,1.12s-2.46-11.61-5.29-20.21c-3.93-7.93-2.22-16.81,2.17-24.06C432.82,118.65,441.39,110.36,441.39,110.36Z"/><polygon class="cls-3" points="454.52 105.26 447.11 111.54 451.85 116.58 456.76 109.12 454.52 105.26"/><polygon class="cls-3" points="447.11 111.54 442.92 108.25 441.39 110.36 443.4 116.43 447.11 111.54"/><path class="cls-19" d="M428.31,138.11c-.26-5.14,2.78-13.12,2.78-13.12"/><path class="cls-20" d="M509.2,445.34l-.93,0-106.48-7.53a13.06,13.06,0,0,1-12.09-13.93l2.22-31.35a3.69,3.69,0,0,1,3.72-3.46,3.77,3.77,0,0,1,2.57,1,18.58,18.58,0,0,0,11.53,5.18c.43,0,.86.05,1.28.05,10.8,0,19.94-9.66,20.81-22,.91-12.89-7.51-24-18.78-24.83-.43,0-.86,0-1.28,0A18.83,18.83,0,0,0,400.9,352a3.71,3.71,0,0,1-2.16.7,3.8,3.8,0,0,1-2.76-1.2,3.68,3.68,0,0,1-1-2.79l2.22-31.35a13.08,13.08,0,0,1,13-12.12c.31,0,.63,0,.94,0l32.38,2.29a3.73,3.73,0,0,1,2.29,6.44,19,19,0,0,0-6.16,12.51c-.8,11.27,9,21.18,21.93,22.09.64,0,1.28.07,1.92.07,12.1,0,22.16-8.28,22.91-18.85a19,19,0,0,0-4.35-13.26A3.73,3.73,0,0,1,485,310.5h.28l32.39,2.29a13.06,13.06,0,0,1,12.09,13.93L522.2,433.22a13.08,13.08,0,0,1-13,12.12Z"/><path class="cls-3" d="M410.23,306l.88,0,32.38,2.29a3,3,0,0,1,1.83,5.14,19.62,19.62,0,0,0-6.4,13c-.83,11.7,9.3,22,22.63,22.89.66,0,1.32.07,2,.07,12.47,0,22.87-8.43,23.66-19.55a19.6,19.6,0,0,0-4.51-13.78,3,3,0,0,1,2.31-4.84h.22l32.39,2.29A12.29,12.29,0,0,1,529,326.68l-7.53,106.48a12.29,12.29,0,0,1-12.25,11.43l-.88,0L401.84,437a12.29,12.29,0,0,1-11.39-13.13l2.21-31.35a3,3,0,0,1,5-1.93,19.4,19.4,0,0,0,12,5.38c.45,0,.89.05,1.33.05,11.14,0,20.65-9.86,21.56-22.68.94-13.32-7.78-24.8-19.48-25.63-.44,0-.89,0-1.33,0a19.51,19.51,0,0,0-11.3,3.69,3,3,0,0,1-1.73.56,3,3,0,0,1-3-3.19L398,317.42A12.29,12.29,0,0,1,410.23,306m0-1.5h0a13.84,13.84,0,0,0-13.75,12.82l-2.22,31.35a4.42,4.42,0,0,0,1.17,3.35,4.57,4.57,0,0,0,3.31,1.44,4.45,4.45,0,0,0,2.59-.84,18.07,18.07,0,0,1,10.44-3.41c.41,0,.82,0,1.23,0,10.85.77,19,11.55,18.08,24-.84,11.93-9.65,21.28-20.06,21.28-.4,0-.82,0-1.23,0a17.91,17.91,0,0,1-11.07-5,4.47,4.47,0,0,0-7.55,2.92L389,423.79a13.81,13.81,0,0,0,12.79,14.74l106.48,7.52c.33,0,.66,0,1,0A13.84,13.84,0,0,0,523,433.27l7.53-106.48a13.81,13.81,0,0,0-12.79-14.74l-32.38-2.29H485A4.47,4.47,0,0,0,481.5,317a18,18,0,0,1,4.18,12.74c-.72,10.18-10.45,18.15-22.16,18.15-.62,0-1.25,0-1.87-.07a24.34,24.34,0,0,1-15.66-7,18.48,18.48,0,0,1-5.58-14.32,18,18,0,0,1,5.93-12,4.47,4.47,0,0,0-2.74-7.73l-32.39-2.3-1,0Z"/><g class="cls-21"><g class="cls-22"><circle class="cls-23" cx="493.69" cy="469.76" r="60.86" transform="translate(-35.12 39.91) rotate(-4.47)"/><circle class="cls-23" cx="492.58" cy="468.34" r="38.45"/><circle class="cls-23" cx="493.69" cy="469.76" r="20.13" transform="translate(-105.51 145.16) rotate(-15.13)"/></g></g><path class="cls-24" d="M357.76,303.13a15.19,15.19,0,0,1-1.64-.1L323.76,299a3.73,3.73,0,0,1-1.91-6.57,18.64,18.64,0,0,0,2-27.49,25.07,25.07,0,0,0-15.73-8,27.08,27.08,0,0,0-3.36-.22c-11.54,0-21.19,7.58-22.45,17.62A19,19,0,0,0,286,287.88a3.65,3.65,0,0,1,.33,3.87,3.7,3.7,0,0,1-3.31,2.06l-.49,0-32.36-4.07a13,13,0,0,1-11.32-14.57l13.32-105.91a13,13,0,0,1,12.92-11.42,14.89,14.89,0,0,1,1.64.1l105.92,13.32A13,13,0,0,1,384,185.8l-4,31.83a3.71,3.71,0,0,1-3.72,3.27,3.62,3.62,0,0,1-2.77-1.27,18.64,18.64,0,0,0-11.84-6.47,17.19,17.19,0,0,0-2.27-.14c-10.47,0-19.49,9-21,20.84-1.61,12.82,6.19,24.4,17.4,25.81a18.52,18.52,0,0,0,13.08-3.34,3.67,3.67,0,0,1,2.09-.66A3.77,3.77,0,0,1,373.8,257a3.67,3.67,0,0,1,.89,2.93l-4,31.83A13.06,13.06,0,0,1,357.76,303.13Z"/><path class="cls-3" d="M265.13,158.56a11.63,11.63,0,0,1,1.55.1L372.6,172a12.3,12.3,0,0,1,10.66,13.73l-4,31.83a3,3,0,0,1-3,2.62,2.89,2.89,0,0,1-2.2-1,19.56,19.56,0,0,0-12.32-6.73,18.64,18.64,0,0,0-2.35-.14c-10.71,0-20.18,9.14-21.74,21.5C336,247,344.09,259,355.73,260.41a18.5,18.5,0,0,0,2.34.15A19.76,19.76,0,0,0,369.32,257a2.89,2.89,0,0,1,1.67-.53,3,3,0,0,1,3,3.36l-4,31.84a12.31,12.31,0,0,1-12.19,10.76,11.48,11.48,0,0,1-1.54-.1l-32.37-4.07a3,3,0,0,1-1.52-5.24,19.67,19.67,0,0,0,7.25-12.78c1.46-11.64-8.1-22.42-21.35-24.09a29.1,29.1,0,0,0-3.46-.22c-11.81,0-21.86,7.66-23.19,18.28a19.62,19.62,0,0,0,3.86,14.17,3,3,0,0,1-2.38,4.73l-.4,0L250.3,289a12.29,12.29,0,0,1-10.66-13.73L253,169.32a12.3,12.3,0,0,1,12.18-10.76m0-1.5v0a13.81,13.81,0,0,0-13.67,12.08L238.15,275.05a13.81,13.81,0,0,0,12,15.41l32.37,4.06a3.77,3.77,0,0,0,.58,0,4.48,4.48,0,0,0,3.59-7.12,18.24,18.24,0,0,1-3.58-13.1c1.21-9.67,10.54-17,21.7-17a25.76,25.76,0,0,1,3.27.21c12.41,1.56,21.41,11.61,20,22.41a18.25,18.25,0,0,1-6.71,11.81,4.47,4.47,0,0,0,2.29,7.89L356,303.77a14.35,14.35,0,0,0,1.73.11,13.8,13.8,0,0,0,13.67-12.08l4-31.83a4.39,4.39,0,0,0-1.08-3.51,4.49,4.49,0,0,0-3.37-1.54,4.4,4.4,0,0,0-2.52.79,18.29,18.29,0,0,1-10.4,3.35,17.51,17.51,0,0,1-2.16-.13,18.45,18.45,0,0,1-13-8.26A24.36,24.36,0,0,1,339.16,234c1.45-11.51,10.15-20.18,20.25-20.18a17.28,17.28,0,0,1,2.16.13,17.89,17.89,0,0,1,11.37,6.22,4.37,4.37,0,0,0,3.34,1.53,4.51,4.51,0,0,0,4.47-3.93l4-31.83a13.8,13.8,0,0,0-12-15.41L266.87,157.17a14.52,14.52,0,0,0-1.74-.11Z"/><g class="cls-25"><g class="cls-26"><circle class="cls-27" cx="252.55" cy="170.58" r="60.86"/><circle class="cls-27" cx="251.27" cy="169.31" r="41.47"/><circle class="cls-27" cx="252.55" cy="170.58" r="20.13"/></g></g><path class="cls-28" d="M454.66,336.49a26.6,26.6,0,0,1-17.54-6.59,20.14,20.14,0,0,1-1.19-29.73,2.22,2.22,0,0,0-1.58-3.77l-32.65-.34a13,13,0,0,1-12.91-13.18l.33-31.59a2.16,2.16,0,0,0-.64-1.59,2.27,2.27,0,0,0-1.61-.68,2.13,2.13,0,0,0-1.37.51,20.21,20.21,0,0,1-12.91,4.75h-.2a20.64,20.64,0,0,1-15.5-7.51,26.51,26.51,0,0,1-6.23-17.66c.14-13.63,10-24.71,22-24.71h.21a20.17,20.17,0,0,1,13,5,2.11,2.11,0,0,0,1.4.53,2.26,2.26,0,0,0,2.25-2.22l.33-31.59a13.08,13.08,0,0,1,13-12.91l106.88,1.11a13.06,13.06,0,0,1,12.91,13.18l-1.11,106.74a13.09,13.09,0,0,1-13,12.91l-32.8-.34a2.22,2.22,0,0,0-2.07,1.34,2.18,2.18,0,0,0,.42,2.4,20.48,20.48,0,0,1,5.69,14.2c-.12,12-11.28,21.72-24.86,21.72Z"/><path class="cls-3" d="M402.94,164h.13l106.74,1.11A12.3,12.3,0,0,1,522,177.51l-1.11,106.74a12.29,12.29,0,0,1-12.29,12.17h-.13l-32.66-.34h0a3,3,0,0,0-2.18,5,19.66,19.66,0,0,1,5.49,13.68c-.12,11.64-10.89,21-24.12,21h-.29c-13.36-.14-24.09-9.76-24-21.48a19.67,19.67,0,0,1,5.77-13.57,3,3,0,0,0-2.11-5l-32.65-.34a12.3,12.3,0,0,1-12.17-12.42l.33-31.59a3,3,0,0,0-3-3A2.89,2.89,0,0,0,385,249a19.47,19.47,0,0,1-12.43,4.58h-.19c-11.73-.13-21.13-11.05-21-24.41s9.65-24,21.29-24h.2A19.44,19.44,0,0,1,385.43,210a2.88,2.88,0,0,0,1.89.71,3,3,0,0,0,3-3l.33-31.59A12.29,12.29,0,0,1,402.94,164m0-1.5a13.84,13.84,0,0,0-13.79,13.65l-.33,31.59a1.48,1.48,0,0,1-1.5,1.48,1.41,1.41,0,0,1-.92-.35,20.84,20.84,0,0,0-13.49-5.2h-.21c-12.42,0-22.64,11.42-22.79,25.45s9.93,25.8,22.47,25.93h.21A21,21,0,0,0,386,250.11a1.32,1.32,0,0,1,.89-.34,1.54,1.54,0,0,1,1.08.46,1.47,1.47,0,0,1,.42,1.05L388,282.87a13.81,13.81,0,0,0,13.65,13.94l32.66.34a1.48,1.48,0,0,1,1,2.5,21.17,21.17,0,0,0-6.2,14.59c-.13,12.54,11.28,22.85,25.45,23h.3c14,0,25.49-10.08,25.62-22.47a21.23,21.23,0,0,0-5.9-14.72,1.47,1.47,0,0,1,1.09-2.47l32.67.34h.15a13.84,13.84,0,0,0,13.79-13.65l1.11-106.74a13.82,13.82,0,0,0-13.65-13.94l-106.75-1.11Z"/><g class="cls-29"><path class="cls-3" d="M354.7,183.66a2.88,2.88,0,1,1,2.36-3.31A2.86,2.86,0,0,1,354.7,183.66Z"/><path class="cls-3" d="M381.45,179.15a2.88,2.88,0,1,1,2.36-3.31A2.87,2.87,0,0,1,381.45,179.15Z"/><path class="cls-3" d="M408.2,174.64a2.88,2.88,0,1,1,2.36-3.32A2.87,2.87,0,0,1,408.2,174.64Z"/><path class="cls-3" d="M435,170.13a2.88,2.88,0,1,1,2.36-3.32A2.88,2.88,0,0,1,435,170.13Z"/><path class="cls-3" d="M461.7,165.61a2.88,2.88,0,1,1,2.36-3.31A2.86,2.86,0,0,1,461.7,165.61Z"/><path class="cls-3" d="M488.45,161.1a2.88,2.88,0,1,1,2.36-3.31A2.86,2.86,0,0,1,488.45,161.1Z"/><path class="cls-3" d="M515.2,156.59a2.88,2.88,0,1,1,2.36-3.32A2.87,2.87,0,0,1,515.2,156.59Z"/><path class="cls-3" d="M358.41,205.62a2.88,2.88,0,1,1,2.35-3.31A2.87,2.87,0,0,1,358.41,205.62Z"/><circle class="cls-3" cx="384.68" cy="198.28" r="2.88" transform="translate(-28.01 67.98) rotate(-9.75)"/><path class="cls-3" d="M411.91,196.6a2.88,2.88,0,1,1,2.35-3.31A2.88,2.88,0,0,1,411.91,196.6Z"/><path class="cls-3" d="M438.66,192.09a2.88,2.88,0,1,1,2.35-3.32A2.88,2.88,0,0,1,438.66,192.09Z"/><path class="cls-3" d="M465.41,187.58a2.88,2.88,0,1,1,2.35-3.32A2.89,2.89,0,0,1,465.41,187.58Z"/><path class="cls-3" d="M492.16,183.06a2.88,2.88,0,1,1,2.35-3.31A2.87,2.87,0,0,1,492.16,183.06Z"/><path class="cls-3" d="M518.91,178.55a2.88,2.88,0,1,1,2.35-3.31A2.87,2.87,0,0,1,518.91,178.55Z"/><path class="cls-3" d="M362.11,227.59a2.88,2.88,0,1,1,2.36-3.32A2.87,2.87,0,0,1,362.11,227.59Z"/><path class="cls-3" d="M388.86,223.07a2.88,2.88,0,1,1,2.36-3.31A2.86,2.86,0,0,1,388.86,223.07Z"/><path class="cls-3" d="M415.61,218.56a2.88,2.88,0,1,1,2.36-3.31A2.86,2.86,0,0,1,415.61,218.56Z"/><path class="cls-3" d="M442.36,214.05a2.88,2.88,0,1,1,2.36-3.31A2.87,2.87,0,0,1,442.36,214.05Z"/><path class="cls-3" d="M469.11,209.54a2.88,2.88,0,1,1,2.36-3.32A2.88,2.88,0,0,1,469.11,209.54Z"/><path class="cls-3" d="M495.86,205a2.88,2.88,0,1,1,2.36-3.32A2.89,2.89,0,0,1,495.86,205Z"/><path class="cls-3" d="M522.61,200.51A2.88,2.88,0,1,1,525,197.2,2.88,2.88,0,0,1,522.61,200.51Z"/><path class="cls-3" d="M365.81,249.55a2.87,2.87,0,1,1,2.36-3.32A2.87,2.87,0,0,1,365.81,249.55Z"/><path class="cls-3" d="M392.56,245a2.88,2.88,0,1,1,2.36-3.32A2.88,2.88,0,0,1,392.56,245Z"/><path class="cls-3" d="M419.31,240.52a2.87,2.87,0,1,1,2.36-3.31A2.87,2.87,0,0,1,419.31,240.52Z"/><path class="cls-3" d="M446.06,236a2.87,2.87,0,1,1,2.36-3.31A2.87,2.87,0,0,1,446.06,236Z"/><path class="cls-3" d="M472.81,231.5a2.87,2.87,0,1,1,2.36-3.32A2.87,2.87,0,0,1,472.81,231.5Z"/><path class="cls-3" d="M499.56,227a2.88,2.88,0,1,1,2.36-3.32A2.87,2.87,0,0,1,499.56,227Z"/><path class="cls-3" d="M526.31,222.48a2.88,2.88,0,1,1,2.36-3.32A2.88,2.88,0,0,1,526.31,222.48Z"/><path class="cls-3" d="M369.52,271.51a2.88,2.88,0,1,1,2.36-3.31A2.88,2.88,0,0,1,369.52,271.51Z"/><path class="cls-3" d="M396.27,267a2.88,2.88,0,1,1,2.36-3.32A2.88,2.88,0,0,1,396.27,267Z"/><path class="cls-3" d="M423,262.49a2.88,2.88,0,1,1,2.36-3.32A2.89,2.89,0,0,1,423,262.49Z"/><path class="cls-3" d="M449.77,258a2.88,2.88,0,1,1,2.36-3.31A2.88,2.88,0,0,1,449.77,258Z"/><path class="cls-3" d="M476.52,253.46a2.88,2.88,0,1,1,2.36-3.31A2.88,2.88,0,0,1,476.52,253.46Z"/><path class="cls-3" d="M503.27,249a2.88,2.88,0,1,1,2.36-3.32A2.88,2.88,0,0,1,503.27,249Z"/><path class="cls-3" d="M530,244.44a2.88,2.88,0,1,1,2.36-3.32A2.88,2.88,0,0,1,530,244.44Z"/><path class="cls-3" d="M373.22,293.47a2.87,2.87,0,1,1,2.36-3.31A2.87,2.87,0,0,1,373.22,293.47Z"/><path class="cls-3" d="M400,289a2.87,2.87,0,1,1,2.36-3.31A2.87,2.87,0,0,1,400,289Z"/><path class="cls-3" d="M426.72,284.45a2.88,2.88,0,1,1,2.36-3.32A2.87,2.87,0,0,1,426.72,284.45Z"/><path class="cls-3" d="M453.47,279.94a2.88,2.88,0,1,1,2.36-3.32A2.88,2.88,0,0,1,453.47,279.94Z"/><path class="cls-3" d="M480.22,275.42a2.87,2.87,0,1,1,2.36-3.31A2.87,2.87,0,0,1,480.22,275.42Z"/><path class="cls-3" d="M507,270.91a2.87,2.87,0,1,1,2.36-3.31A2.87,2.87,0,0,1,507,270.91Z"/><path class="cls-3" d="M533.72,266.4a2.87,2.87,0,1,1,2.36-3.32A2.87,2.87,0,0,1,533.72,266.4Z"/><path class="cls-3" d="M376.93,315.43a2.88,2.88,0,1,1,2.36-3.31A2.88,2.88,0,0,1,376.93,315.43Z"/><path class="cls-3" d="M403.68,310.92a2.88,2.88,0,1,1,2.36-3.31A2.88,2.88,0,0,1,403.68,310.92Z"/><path class="cls-3" d="M430.43,306.41a2.88,2.88,0,1,1,2.36-3.32A2.88,2.88,0,0,1,430.43,306.41Z"/><path class="cls-3" d="M457.18,301.9a2.88,2.88,0,1,1,2.36-3.32A2.88,2.88,0,0,1,457.18,301.9Z"/><path class="cls-3" d="M483.93,297.39a2.88,2.88,0,1,1,2.36-3.32A2.89,2.89,0,0,1,483.93,297.39Z"/><path class="cls-3" d="M510.68,292.87a2.88,2.88,0,1,1,2.36-3.31A2.88,2.88,0,0,1,510.68,292.87Z"/><path class="cls-3" d="M537.43,288.36a2.88,2.88,0,1,1,2.36-3.31A2.88,2.88,0,0,1,537.43,288.36Z"/><path class="cls-3" d="M380.63,337.4a2.88,2.88,0,1,1,2.36-3.32A2.88,2.88,0,0,1,380.63,337.4Z"/><path class="cls-3" d="M407.38,332.88a2.87,2.87,0,1,1,2.36-3.31A2.87,2.87,0,0,1,407.38,332.88Z"/><path class="cls-3" d="M434.13,328.37a2.87,2.87,0,1,1,2.36-3.31A2.87,2.87,0,0,1,434.13,328.37Z"/><path class="cls-3" d="M460.88,323.86a2.87,2.87,0,1,1,2.36-3.32A2.87,2.87,0,0,1,460.88,323.86Z"/><path class="cls-3" d="M487.63,319.35A2.88,2.88,0,1,1,490,316,2.87,2.87,0,0,1,487.63,319.35Z"/><path class="cls-3" d="M514.38,314.83a2.87,2.87,0,1,1,2.36-3.31A2.87,2.87,0,0,1,514.38,314.83Z"/><path class="cls-3" d="M541.13,310.32a2.87,2.87,0,1,1,2.36-3.31A2.87,2.87,0,0,1,541.13,310.32Z"/></g><path class="cls-30" d="M259.47,444.86a13.05,13.05,0,0,1-13-12.31l-6-106.58a13.07,13.07,0,0,1,12.29-13.76l32.5-1.82a2.21,2.21,0,0,0,2-1.46,2.15,2.15,0,0,0-.55-2.36,20.45,20.45,0,0,1-6.52-13.68c-.68-12.11,9.94-22.58,23.67-23.35.54,0,1.07-.05,1.6-.05,13.11,0,23.88,9.05,24.53,20.6a20.5,20.5,0,0,1-5,14.33,2.15,2.15,0,0,0-.31,2.35,2.2,2.2,0,0,0,2,1.3h.14l32.49-1.82.74,0a13.05,13.05,0,0,1,13,12.31l1.78,31.9a2.25,2.25,0,0,0,2.25,2.12,2.14,2.14,0,0,0,1.52-.63A20.1,20.1,0,0,1,391.79,346c.37,0,.73,0,1.1,0,11.73,0,21.5,10.41,22.24,23.7a26.54,26.54,0,0,1-5.41,17.93,20.61,20.61,0,0,1-15.14,8.2l-1.1,0a20.29,20.29,0,0,1-12.6-4.48,2.17,2.17,0,0,0-1.34-.47,2.29,2.29,0,0,0-1.64.71,2.19,2.19,0,0,0-.6,1.65l1.79,31.91a13,13,0,0,1-12.29,13.75l-106.58,6C260,444.86,259.72,444.86,259.47,444.86Z"/><path class="cls-3" d="M305.45,270.24c12.65,0,23.15,8.65,23.78,19.9a19.62,19.62,0,0,1-4.77,13.79,3,3,0,0,0,2.27,4.89h.18L359.4,307l.7,0a12.3,12.3,0,0,1,12.27,11.61l1.79,31.9a3,3,0,0,0,3,2.82,2.88,2.88,0,0,0,2.05-.85,19.46,19.46,0,0,1,12.63-5.73c.35,0,.71,0,1.06,0,11.25,0,20.77,10.06,21.5,23,.74,13.34-8.14,24.68-19.85,25.34l-1.06,0a19.6,19.6,0,0,1-12.14-4.32,2.86,2.86,0,0,0-1.8-.63,3,3,0,0,0-3,3.16l1.79,31.9a12.29,12.29,0,0,1-11.59,13l-106.58,6c-.23,0-.46,0-.69,0a12.3,12.3,0,0,1-12.27-11.6l-6-106.58a12.3,12.3,0,0,1,11.58-13l32.5-1.82a3,3,0,0,0,1.89-5.12,19.58,19.58,0,0,1-6.28-13.18c-.66-11.71,9.62-21.8,23-22.55.52,0,1.05-.05,1.56-.05m0-1.5h0c-.54,0-1.1,0-1.64.05a27.34,27.34,0,0,0-17.7,7.59,20.86,20.86,0,0,0,.07,30.73,1.41,1.41,0,0,1,.36,1.56,1.45,1.45,0,0,1-1.3,1l-32.5,1.82a13.8,13.8,0,0,0-13,14.54l6,106.58a13.8,13.8,0,0,0,13.77,13c.26,0,.52,0,.78,0l106.58-6a13.8,13.8,0,0,0,13-14.55l-1.79-31.9a1.43,1.43,0,0,1,.39-1.09,1.56,1.56,0,0,1,1.1-.48,1.39,1.39,0,0,1,.88.31,21,21,0,0,0,13.06,4.64q.57,0,1.14,0A21.39,21.39,0,0,0,410.31,388a27.3,27.3,0,0,0,5.57-18.44c-.76-13.68-10.86-24.4-23-24.4q-.57,0-1.14,0a20.9,20.9,0,0,0-13.61,6.16,1.37,1.37,0,0,1-1,.42,1.48,1.48,0,0,1-1.5-1.41l-1.79-31.9a13.79,13.79,0,0,0-13.76-13l-.78,0-32.49,1.82h-.1a1.44,1.44,0,0,1-1.33-.86,1.42,1.42,0,0,1,.2-1.56,21.27,21.27,0,0,0,5.13-14.85c-.67-11.95-11.77-21.31-25.28-21.31Z"/><g class="cls-31"><g class="cls-32"><path class="cls-3" d="M184.48,400.89a2.88,2.88,0,1,1,2.1-3.49A2.88,2.88,0,0,1,184.48,400.89Z"/><path class="cls-3" d="M210.8,394.32a2.88,2.88,0,0,1-1.39-5.58,2.88,2.88,0,1,1,1.39,5.58Z"/><path class="cls-3" d="M237.12,387.76a2.88,2.88,0,1,1,2.1-3.49A2.87,2.87,0,0,1,237.12,387.76Z"/><path class="cls-3" d="M263.44,381.19a2.88,2.88,0,1,1,2.1-3.48A2.86,2.86,0,0,1,263.44,381.19Z"/><path class="cls-3" d="M289.77,374.63a2.88,2.88,0,1,1,2.09-3.49A2.88,2.88,0,0,1,289.77,374.63Z"/><path class="cls-3" d="M316.09,368.06a2.88,2.88,0,1,1,2.09-3.49A2.88,2.88,0,0,1,316.09,368.06Z"/><path class="cls-3" d="M342.41,361.49A2.88,2.88,0,1,1,344.5,358,2.88,2.88,0,0,1,342.41,361.49Z"/><path class="cls-3" d="M189.87,422.5A2.88,2.88,0,1,1,192,419,2.88,2.88,0,0,1,189.87,422.5Z"/><path class="cls-3" d="M216.19,415.93a2.88,2.88,0,0,1-1.39-5.58,2.88,2.88,0,1,1,1.39,5.58Z"/><path class="cls-3" d="M242.51,409.37a2.88,2.88,0,1,1,2.1-3.49A2.87,2.87,0,0,1,242.51,409.37Z"/><path class="cls-3" d="M268.84,402.8a2.88,2.88,0,1,1,2.09-3.48A2.87,2.87,0,0,1,268.84,402.8Z"/><path class="cls-3" d="M295.16,396.24a2.88,2.88,0,1,1,2.09-3.49A2.89,2.89,0,0,1,295.16,396.24Z"/><path class="cls-3" d="M321.48,389.67a2.88,2.88,0,1,1,2.09-3.49A2.88,2.88,0,0,1,321.48,389.67Z"/><path class="cls-3" d="M347.8,383.1a2.88,2.88,0,1,1,2.09-3.48A2.88,2.88,0,0,1,347.8,383.1Z"/><path class="cls-3" d="M195.26,444.11a2.88,2.88,0,1,1,2.1-3.49A2.86,2.86,0,0,1,195.26,444.11Z"/><path class="cls-3" d="M221.58,437.54a2.88,2.88,0,0,1-1.39-5.58,2.88,2.88,0,1,1,1.39,5.58Z"/><path class="cls-3" d="M247.91,431a2.88,2.88,0,1,1,2.09-3.49A2.88,2.88,0,0,1,247.91,431Z"/><path class="cls-3" d="M274.23,424.41a2.88,2.88,0,1,1,2.09-3.49A2.87,2.87,0,0,1,274.23,424.41Z"/><path class="cls-3" d="M300.55,417.85a2.88,2.88,0,1,1,2.09-3.49A2.89,2.89,0,0,1,300.55,417.85Z"/><path class="cls-3" d="M326.87,411.28a2.88,2.88,0,1,1,2.09-3.49A2.88,2.88,0,0,1,326.87,411.28Z"/><circle class="cls-3" cx="352.49" cy="401.92" r="2.88" transform="translate(-173.19 499.15) rotate(-59.23)"/><path class="cls-3" d="M200.65,465.72a2.88,2.88,0,1,1,2.1-3.49A2.87,2.87,0,0,1,200.65,465.72Z"/><path class="cls-3" d="M227,459.15a2.88,2.88,0,1,1,2.1-3.48A2.86,2.86,0,0,1,227,459.15Z"/><path class="cls-3" d="M253.3,452.59a2.88,2.88,0,1,1,2.09-3.49A2.88,2.88,0,0,1,253.3,452.59Z"/><path class="cls-3" d="M279.62,446a2.88,2.88,0,1,1,2.09-3.49A2.87,2.87,0,0,1,279.62,446Z"/><path class="cls-3" d="M305.94,439.46A2.88,2.88,0,1,1,308,436,2.89,2.89,0,0,1,305.94,439.46Z"/><path class="cls-3" d="M332.26,432.89a2.88,2.88,0,1,1,2.09-3.49A2.88,2.88,0,0,1,332.26,432.89Z"/><circle class="cls-3" cx="357.88" cy="423.53" r="2.88" transform="translate(-189.12 514.34) rotate(-59.23)"/><path class="cls-3" d="M206,487.33a2.88,2.88,0,1,1,2.1-3.49A2.87,2.87,0,0,1,206,487.33Z"/><path class="cls-3" d="M232.37,480.76a2.88,2.88,0,1,1,2.09-3.48A2.87,2.87,0,0,1,232.37,480.76Z"/><path class="cls-3" d="M258.69,474.2a2.88,2.88,0,1,1,2.09-3.49A2.89,2.89,0,0,1,258.69,474.2Z"/><path class="cls-3" d="M285,467.63a2.88,2.88,0,1,1,2.09-3.49A2.88,2.88,0,0,1,285,467.63Z"/><path class="cls-3" d="M311.33,461.07a2.88,2.88,0,1,1,2.09-3.49A2.89,2.89,0,0,1,311.33,461.07Z"/><circle class="cls-3" cx="336.95" cy="451.71" r="2.88" transform="translate(-226.54 444.76) rotate(-52.57)"/><path class="cls-3" d="M364,447.93a2.88,2.88,0,1,1,2.1-3.48A2.88,2.88,0,0,1,364,447.93Z"/><path class="cls-3" d="M211.44,508.94a2.88,2.88,0,1,1,2.09-3.49A2.87,2.87,0,0,1,211.44,508.94Z"/><path class="cls-3" d="M237.76,502.37a2.88,2.88,0,1,1,2.09-3.48A2.87,2.87,0,0,1,237.76,502.37Z"/><path class="cls-3" d="M264.08,495.81a2.88,2.88,0,1,1-1.39-5.58,2.88,2.88,0,0,1,1.39,5.58Z"/><path class="cls-3" d="M290.4,489.24a2.88,2.88,0,1,1,2.09-3.49A2.88,2.88,0,0,1,290.4,489.24Z"/><path class="cls-3" d="M316.72,482.68a2.88,2.88,0,1,1,2.09-3.49A2.89,2.89,0,0,1,316.72,482.68Z"/><path class="cls-3" d="M343,476.11a2.88,2.88,0,1,1,2.1-3.49A2.88,2.88,0,0,1,343,476.11Z"/><path class="cls-3" d="M369.36,469.54a2.88,2.88,0,1,1,2.1-3.48A2.86,2.86,0,0,1,369.36,469.54Z"/><path class="cls-3" d="M216.83,530.55a2.88,2.88,0,1,1,2.09-3.49A2.87,2.87,0,0,1,216.83,530.55Z"/><path class="cls-3" d="M243.15,524a2.88,2.88,0,1,1,2.09-3.48A2.88,2.88,0,0,1,243.15,524Z"/><path class="cls-3" d="M269.47,517.42a2.88,2.88,0,1,1-1.39-5.58,2.88,2.88,0,0,1,1.39,5.58Z"/><path class="cls-3" d="M295.79,510.85a2.88,2.88,0,1,1,2.09-3.49A2.88,2.88,0,0,1,295.79,510.85Z"/><path class="cls-3" d="M322.11,504.28a2.88,2.88,0,1,1,2.1-3.48A2.88,2.88,0,0,1,322.11,504.28Z"/><circle class="cls-3" cx="347.74" cy="494.93" r="2.88" transform="translate(-255.42 540.48) rotate(-59.23)"/><path class="cls-3" d="M374.75,491.15a2.88,2.88,0,1,1,2.1-3.48A2.86,2.86,0,0,1,374.75,491.15Z"/><path class="cls-3" d="M222.22,552.16a2.88,2.88,0,1,1,2.09-3.49A2.88,2.88,0,0,1,222.22,552.16Z"/><path class="cls-3" d="M248.54,545.59a2.88,2.88,0,1,1,2.09-3.48A2.88,2.88,0,0,1,248.54,545.59Z"/><circle class="cls-3" cx="274.16" cy="536.24" r="2.88"/><path class="cls-3" d="M301.18,532.46a2.88,2.88,0,1,1,2.1-3.49A2.88,2.88,0,0,1,301.18,532.46Z"/><circle class="cls-3" cx="326.81" cy="523.1" r="2.88" transform="translate(-289.85 536.26) rotate(-59.23)"/><path class="cls-3" d="M353.82,519.33a2.88,2.88,0,1,1,2.1-3.49A2.87,2.87,0,0,1,353.82,519.33Z"/><path class="cls-3" d="M380.14,512.76a2.88,2.88,0,1,1,2.1-3.48A2.86,2.86,0,0,1,380.14,512.76Z"/></g></g><path class="cls-9" d="M115.33,292.34s-1,43.69-3.66,58.67c-3,16.8-28,50.68-28,50.68l5.79,5.73L98,411.51s21.87-20.91,34.2-47.07c10.69-22.69,11.17-69.8,11.17-69.8"/><path class="cls-16" d="M109.11,425.51a4.3,4.3,0,0,0,0-2.87l-8.92-13.12c-8.52-1.57-16-9.26-16-9.26l-7.46,8.26a.66.66,0,0,0,.21.91l30,18.91C107.63,428.72,109.1,425.54,109.11,425.51Z"/><path class="cls-33" d="M102.53,411.74A17.19,17.19,0,0,0,99,413.55"/><path class="cls-33" d="M103.49,413.65a15.82,15.82,0,0,0-3,1.57"/><path class="cls-33" d="M104.37,415.16a20.78,20.78,0,0,0-2.78,1.42"/><line class="cls-33" x1="77.87" y1="407.18" x2="108.63" y2="426.55"/><path class="cls-33" d="M81.61,403.19s7.11,4.74,5,9.47"/><path class="cls-33" d="M107.3,420a27.77,27.77,0,0,0-5,2.61"/><path class="cls-9" d="M147.43,310.47s1.68,25.54,2.84,45.07,3.45,64.12,3.45,64.12l8.45,2,9.38-1.56s2.43-38.5,2.43-64c0-26.38-1-63.76-1-63.76"/><path class="cls-16" d="M188.17,427a4.39,4.39,0,0,0-1.53-2.43l-14.57-6.27c-8,3.25-18.43.76-18.43.76l-1.86,11a.66.66,0,0,0,.66.65l35.48-.18C188.64,430.48,188.18,427,188.17,427Z"/><path class="cls-33" d="M175.22,418.9a17,17,0,0,0-2.05,3.45"/><path class="cls-33" d="M177.06,420a14.77,14.77,0,0,0-1.69,2.93"/><path class="cls-33" d="M178.61,420.8a21.35,21.35,0,0,0-1.59,2.69"/><line class="cls-33" x1="151.97" y1="428.3" x2="188.32" y2="428.11"/><path class="cls-33" d="M153,422.93s8.54.18,9.27,5.32"/><path class="cls-33" d="M183.65,423.27a27.42,27.42,0,0,0-2.81,4.88"/><path class="cls-34" d="M146.81,166c-4.58-1-8.93,2-11,5.21-.64,1-1.14,2.11-1.86,3.07-4.57,6-23,4.17-19.34,16.07.42,1.37,1.22,2.64,1.34,4.06.15,1.79-.79,3.46-1.28,5.18a11.09,11.09,0,0,0,8,13.34c2.55.54,5.38.18,7.59,1.57,2.05,1.3,3,3.76,4.44,5.7,4,5.32,11.88,6.37,18.12,4.1,2.36-.86,4.72-2.27,5.73-4.57.58-1.31.67-2.82,1.42-4,1.45-2.36,4.64-2.75,7-4.12,3.45-2,5.47-6.57,3.9-10.29s-5-7.31-5.78-11.4c-.43-2.27.19-4.65-.27-6.92a7.43,7.43,0,0,0-2.64-4.31c-.93-.74-2-1.24-2.94-2-1.93-1.57-2.18-4.4-4.16-6s-4.62-2.15-6.75-3.53"/><path class="cls-9" d="M155.18,194.07c11.62-3.25,28.67-2.57,42.28-16s19.44-23.7,19.44-23.7l10.49,8.27s-13.77,26.41-26,35.29c-16.14,11.67-27.1,13.48-36.37,15.15"/><path class="cls-9" d="M214,158.73c2.86-4.39,9.8-17,10.76-16.83s-1.25,4.54-.43,4.5,4.69-6.58,5.62-6.18c1.26.53-3.07,7-3.07,7s1.13-1.16,2.09-.38c.68.56-.13,2.52-.13,2.52s1.3-1.3,2-.71-.24,2.92-.24,2.92a1.69,1.69,0,0,1,1.64,0c.66.52-2.74,8.35-9.08,18.51"/><path class="cls-13" d="M223.44,148.11a25,25,0,0,0,0,3.85,6.5,6.5,0,0,1-.45,3.79"/><path class="cls-35" d="M226.55,147.77c-.27.73-.53,1.48-.75,2.23a10.92,10.92,0,0,0-.27,1.13,2.85,2.85,0,0,0-.07,1.07c.06.17.06.18.19.18a.74.74,0,0,0,.41-.14,4.33,4.33,0,0,0,.85-.71,19,19,0,0,0,1.47-1.76.33.33,0,0,1,.56.35h0c-.36.67-.7,1.37-1,2.07a11.13,11.13,0,0,0-.37,1.06,2.81,2.81,0,0,0-.14,1c.05.11,0,.06.08.08a.58.58,0,0,0,.36-.08,2.78,2.78,0,0,0,.81-.64,10.4,10.4,0,0,0,1.34-1.8h0a.32.32,0,0,1,.45-.1.32.32,0,0,1,.12.41c-.3.63-.6,1.27-.87,1.92a8,8,0,0,0-.61,2,.85.85,0,0,0,0,.41c0,.08.1.11.25.09a2.24,2.24,0,0,0,.83-.53,12.47,12.47,0,0,0,1.39-1.59,10.06,10.06,0,0,1-1.22,1.76,2.37,2.37,0,0,1-.91.69.71.71,0,0,1-.36,0,.5.5,0,0,1-.32-.25,1.24,1.24,0,0,1-.11-.63,8.37,8.37,0,0,1,.51-2.14,20.4,20.4,0,0,1,.81-2l.57.3a11.07,11.07,0,0,1-1.39,2,3.71,3.71,0,0,1-1,.81,1.32,1.32,0,0,1-.76.16.77.77,0,0,1-.47-.2.84.84,0,0,1-.24-.44,2.72,2.72,0,0,1,.15-1.34,10,10,0,0,1,.43-1.12,23.28,23.28,0,0,1,1.06-2.12l.56.36a13.64,13.64,0,0,1-1.6,1.8,5.16,5.16,0,0,1-1,.74,1.3,1.3,0,0,1-.7.16.58.58,0,0,1-.42-.19.72.72,0,0,1-.17-.37,5.34,5.34,0,0,1,.53-2.39A23.16,23.16,0,0,1,226.55,147.77Z"/><path class="cls-34" d="M141.83,168.11"/><path class="cls-34" d="M144.1,167c-.55-.3-1.28-.21-1.75-.62a2.57,2.57,0,0,1-.46-2.79c.53-1.46,2.41-2.1,3.84-1.89,3.42.51,2.89,3.8.8,5"/><path class="cls-36" d="M125.2,250.13s-12.28,13.09-14.61,30.92-2.37,46.85-2.37,46.85,35.35,6.48,67.5-.69c-1.23-14.83,0-56.32-11.22-77.08"/><path class="cls-37" d="M114.69,328.86s-1.11-44.78,4.08-59.9c4.08-11.87,13-23.34,13-23.34"/><path class="cls-38" d="M176.23,190.78l4.19,20a59.85,59.85,0,0,1-16.67,3.8c-4.57-.08-11.49-17.87-8.88-21.29C162.5,191,176.23,190.78,176.23,190.78Z"/><path class="cls-38" d="M124.35,213.2s-.55,23.4.85,36.93c19.74,4.37,39.3,0,39.3,0l1.36-21.26c9.86-10.12,1.22-23.23,1.22-23.23l-12.21-12.38-12.2-.68Z"/><path class="cls-38" d="M142.67,192.58s-10.86-1.72-21.35,6.91c-2.37,1.94-5.31,6-7.74,10.91l16.91,11.14,10-11.14"/><path class="cls-33" d="M170.21,213.7c-.83-3.13-3.14-8.06-3.14-11.07"/><line class="cls-33" x1="173.04" y1="190.89" x2="177.82" y2="211.68"/><line class="cls-33" x1="115.05" y1="207.64" x2="127.31" y2="215.26"/><path class="cls-9" d="M155.78,170.85s4.49,11.66,1.12,15.21c-1.74,1.85-7.81.82-10.09-.92-1.7-1.3-3.94-9-3-10.52C147.28,169,155.78,170.85,155.78,170.85Z"/><path class="cls-9" d="M143.12,181.11l-.45,11.47c.9,2.89,10.65,5.64,12.2.68l-1-8.61Z"/><path class="cls-34" d="M138,179.8a9.34,9.34,0,0,1-.48-3.41,13.17,13.17,0,0,1,.66-4.32,9.56,9.56,0,0,1,4.89-5.39c2.26-1.07,6.57-2.08,10.06,0a6.51,6.51,0,0,1,5,1.53,5,5,0,0,1,1.51,4.89l-10-1.14a9.5,9.5,0,0,1-3.5,4.46c-1.54,1-3.23,2.36-2.59,4.51.26.89-.7,1.06-.7,2.79-1.79-.19-4.44-2.75-4.85-3.79C138,179.88,138,179.84,138,179.8Z"/><path class="cls-9" d="M144.64,179.26c-1.06-1.64-2-1.49-2.66-.7-.82,1.05.39,3.5,1,4,1.26.93,2.36.94,2.56-.14"/><path class="cls-13" d="M154.17,187.36a12.07,12.07,0,0,1-7.36-2.22"/><path class="cls-15" d="M153.32,176.75s2.86,2.48,2.79,3.26-1.85,1.11-1.85,1.11"/><path class="cls-3" d="M156.35,181.79l-4.82,1.33a3.19,3.19,0,0,0,3.87,1.5C157.25,184,156.35,181.79,156.35,181.79Z"/><path class="cls-16" d="M155.34,175.85a4.52,4.52,0,0,0,.21.62.39.39,0,1,0,.72-.3,6.54,6.54,0,0,0-.3-.59.35.35,0,0,0-.63.27Z"/><path class="cls-17" d="M154.21,174.68a1.29,1.29,0,0,1,1.81-.46"/><path class="cls-16" d="M149.92,177.89c.05.22.11.43.18.64.16.48.94.27.76-.21a5.37,5.37,0,0,0-.31-.69c-.19-.36-.7-.11-.63.26Z"/><path class="cls-17" d="M150.51,175.75a2.41,2.41,0,0,0-2.31,1.33"/><path class="cls-9" d="M113.58,210.4c-5.27,10.64-8.55,26.14,2.57,30.86,11.6,4.93,42-32.29,42-32.29l-9.39-8.08L123.66,217"/><line class="cls-13" x1="123.66" y1="217.04" x2="116.15" y2="222.89"/><path class="cls-36" d="M158.21,204h0a2.79,2.79,0,0,1-2.22-3.26L158,190l5.49,1-2,10.78A2.8,2.8,0,0,1,158.21,204Z"/><path class="cls-39" d="M164.32,193.33l-4.41-1.08a5.82,5.82,0,0,1-4.29-7.05h0a5.83,5.83,0,0,1,7-4.29l4.41,1.07a.48.48,0,0,1,.36.59L164.92,193A.5.5,0,0,1,164.32,193.33Z"/><path class="cls-40" d="M167.64,188.13c-.76,3.13-2.24,5.46-3.3,5.2s-1.31-3-.54-6.14,2.24-5.46,3.3-5.2S168.4,185,167.64,188.13Z"/><path class="cls-36" d="M178.06,203.14s-8.09-6.94-12.88-9.81c-1.5-1.22-1-4.1-.58-5.68,1.08-4.06,2.48-4.59,2.48-4.59,6.5.46,16.71-2.64,16.71-2.64"/><path class="cls-40" d="M178.59,190.76c-1.78,7.07-1.59,13.22.43,13.73s5.11-4.81,6.89-11.89,1.59-13.22-.43-13.73S180.37,183.68,178.59,190.76Z"/><path class="cls-39" d="M179.78,191.08c-1.5,6-1.49,11.15,0,11.53s4-4.15,5.5-10.13,1.49-11.15,0-11.53S181.29,185.1,179.78,191.08Z"/><path class="cls-36" d="M182.46,194.5a7.61,7.61,0,0,0-3.38-.07c.18-1.07.41-2.19.7-3.35s.62-2.25,1-3.27a7.63,7.63,0,0,0,3,1.54Z"/><path class="cls-34" d="M182.4,191.74c-.36,1.44-.34,2.68,0,2.78s1-1,1.36-2.42.34-2.68-.05-2.78S182.76,190.31,182.4,191.74Z"/><path class="cls-9" d="M144.22,203.81A124.56,124.56,0,0,1,155.64,197a9.55,9.55,0,0,1,7.21.15,4.1,4.1,0,0,1,1.74,1.21,3.72,3.72,0,0,1,.72,2.46.5.5,0,0,1-.17.44c-.31.21-.6-.27-.79-.6a2.5,2.5,0,0,0-2.27-1.15c.48,0,.7.48.9.92a.8.8,0,0,1-.51,1.13,1.08,1.08,0,0,1,.86.92,1.07,1.07,0,0,1-.61,1.09.74.74,0,0,1,.41.79,2,2,0,0,1-.43.85,20.26,20.26,0,0,1-3,3c-3.37,2.9-10.34,10.76-10.34,10.76"/><path class="cls-9" d="M182.44,425.38l-28.32-2.11-9.29,1,.18,35.21a1.61,1.61,0,0,0,1.62,1.6h0a1.6,1.6,0,0,0,1.5-1l7.22-15.71,29.52,3.55"/><path class="cls-38" d="M145.41,462.64c1.16-.37,2.47-1.06,2.77-1.75l7.17-16.65c-3.72-9.19-.87-21.07-.87-21.07l-12.55-.91a.75.75,0,0,0-.74.75l.2,39.35C141.4,463.17,145.37,462.65,145.41,462.64Z"/><path class="cls-33" d="M154.64,447.84a20.19,20.19,0,0,0-3.95-2.35"/><path class="cls-33" d="M153.38,449.94A17.3,17.3,0,0,0,150,448"/><path class="cls-33" d="M152.47,451.71a25.08,25.08,0,0,0-3.08-1.81"/><line class="cls-33" x1="143.89" y1="422.47" x2="144.11" y2="462.81"/><path class="cls-33" d="M149.9,422.84s-.07,9.34-6,10.18"/><path class="cls-33" d="M149.65,457.48s-3.82-2.69-5.59-3.22"/><path class="cls-41" d="M231.91,367.26c.42.87,5.69,38.24,9.47,64.31,2.36,16.31,2.65,26.61-21.1,24.66-32.71-2.68-55.5-4.16-55.5-4.16L164,422.74,209,424.88l-5.86-29s-10.87-14.5-2.86-31.09"/><line class="cls-42" x1="168.87" y1="422.97" x2="170.05" y2="452.07"/><path class="cls-42" d="M224,386.63l7.91,45.91a2,2,0,0,1-2.13,2.27l-65.58-4"/><path class="cls-9" d="M265.81,421.56l-6,28.32-.25,9.3L296,459a1.62,1.62,0,0,0,1.6-1.62h0a1.61,1.61,0,0,0-1-1.5l-15.71-7.22,7.42-29.52"/><path class="cls-38" d="M299.2,458.6c-.37-1.17-1.05-2.48-1.74-2.78l-16.66-7.17c-9.18,3.72-21.07.88-21.07.88l-2.12,12.54a.77.77,0,0,0,.76.75l40.55-.21C299.74,462.6,299.22,458.63,299.2,458.6Z"/><path class="cls-33" d="M284.41,449.37a18.92,18.92,0,0,0-2.35,3.94"/><path class="cls-33" d="M286.5,450.62a17.84,17.84,0,0,0-1.93,3.35"/><path class="cls-33" d="M288.28,451.54a24.24,24.24,0,0,0-1.81,3.07"/><line class="cls-33" x1="257.83" y1="460.11" x2="299.38" y2="459.9"/><path class="cls-33" d="M259,454s9.76.2,10.6,6.08"/><path class="cls-33" d="M294,454.35s-2.69,3.83-3.22,5.59"/><path class="cls-41" d="M247.06,358.72l2.08,8.16a2.64,2.64,0,0,0,2.55,2h28.2c6.9,0,14.18.17,18.12,6.16,3.23,4.9,2.09,13.06-.6,22.45-2.31,8-10.47,44.74-10.47,44.74h-29l8.2-43.8H232.64S211,398.6,214,376.88"/><line class="cls-42" x1="258.7" y1="437.69" x2="287.76" y2="437.69"/><path class="cls-42" d="M236.61,398.42h-4s-20.75,0-21-21.54"/><path class="cls-42" d="M234.31,365.71s.53,24.3,21,24.3h15.38a3,3,0,0,1,2.95,3.62l-10.15,48.52"/><path class="cls-42" d="M236.31,375.79c.16.43,8.59-1.93,8.43-10.08"/><path class="cls-42" d="M218.6,379.23a35,35,0,0,0,8.44-1.16"/><path class="cls-42" d="M197.36,379.23s4.08.12,7.17,0"/><path class="cls-9" d="M222.12,277.69s10-31.15,28.73-56.22l-12.78-7.8c-20.22,21.94-33.54,58.63-33.54,58.63"/><path class="cls-34" d="M196.7,330.58s-4.18-38.42,11.65-70.65L227,266l-4.92,24.64"/><line class="cls-43" x1="206.95" y1="263.55" x2="225.37" y2="269.92"/><path class="cls-9" d="M248.17,225.06c3-4.61,13.94-16.52,13.41-17.52s-4.43,3.15-4.71,2.25,5.29-7.68,4.49-8.53c-1.07-1.16-6.4,6.09-6.4,6.09s5.44-8.23,4.21-9c-.86-.52-5.31,5.57-7.3,7.68,1.87-2.57,4.4-7.08,3.49-7.6s-4,3.56-6.57,6.56c1.42-2,3.8-5.83,3-6.35s-11.19,10.49-19.37,21.67"/><path class="cls-9" d="M234.48,320.83s19.12,7.32,33.15,8.24c18.39,1.19,39.77-5.66,39.77-5.66s2.82-15.11-4.54-14.39c-9.07,1.65-24.75,2.81-36.54,1.38-7.36-.89-23-9.28-23-9.28"/><path class="cls-9" d="M298.69,309.83c5.46-.73,20.93-5.42,21.6-4.52s-4.75,2.64-4.06,3.28,9.21-1.44,9.63-.36c.58,1.47-8.26,3.14-8.26,3.14s9.77-1.34,9.9.08c.1,1-7.32,2.37-10.08,3.25,3.12-.57,8.28-.9,8.36.15s-5,2.08-8.76,3.08c2.43-.4,6.9-.9,7,.07s-11.94,4.34-23.4,7.08"/><path class="cls-9" d="M214.71,284.74l-2.62,13.14s7.36,7.45,15.07.51l-.09-8.8Z"/><path class="cls-9" d="M228.63,272.36s6.28,12.56,2.39,16.71c-2,2.16-5,3-7.65,1-2-1.49-9.57-10.5-8.51-12.21C218.88,271.31,228.63,272.36,228.63,272.36Z"/><path class="cls-9" d="M231.13,279.44s2.32,2.3,2.32,3.83c0,.68-2.32.78-2.32.78"/><path class="cls-3" d="M231,285.34l-4.08-.6C226.74,286.29,229.78,290.15,231,285.34Z"/><path class="cls-16" d="M228,279.23a1.15,1.15,0,0,0,.38,1.19.28.28,0,0,0,.41-.24,4,4,0,0,0-.22-.95.3.3,0,0,0-.57,0Z"/><path class="cls-17" d="M226.08,278.47a2.65,2.65,0,0,1,1.94-1.15,1.39,1.39,0,0,1,1,.23"/><path class="cls-10" d="M213.39,273.3c.68-4.46,5.22-5.38,13.66-4.13,1.13.17,3.21-.42,3.65.63.57,1.39.46,4.09-1,5.18-1.26.95-3,.45-4.44.95-2.27.82-1.15,3-2.35,4.61-2,2.67-.68,6.59-4,8.63-1.88,1.16-4.29.83-6.46.42a1.61,1.61,0,0,1-.75-.27c-.75-.58-.45-2.62-.67-3.5a27,27,0,0,1-.84-8.72C210.43,274.57,212.46,273,213.39,273.3Z"/><path class="cls-9" d="M223,281.17c-.44-2.62-2.4-1.71-3.1-.79-.94,1.22.47,4.06,1.2,4.59,1.48,1.07,2.75,1.09,3-.17"/><path class="cls-13" d="M226.94,291.37a15.31,15.31,0,0,1-4.63-2.3"/><path class="cls-34" d="M212,293.86s-11.42,4.84-14.94,22.86c-1.56,8,1.45,51.15,1.45,51.11,24.7,4.82,51.29-2.3,51.29-2.3s-3-28.11-4.43-38.7c-3.2-24.43-20-32.19-20-32.19Z"/><path class="cls-34" d="M225.37,294.64S234.86,296.1,241,299s19.84,9.59,19.84,9.59l-7.06,19.52-24.92-7.87"/><line class="cls-43" x1="245.14" y1="325.08" x2="231.14" y2="320.98"/><line class="cls-43" x1="256.52" y1="306.52" x2="249.83" y2="326.59"/><path class="cls-43" d="M198.3,364.78a163.1,163.1,0,0,0,51.06-1.87"/><path class="cls-9" d="M581.66,419l6,28.33-1,9.29-35.22-.19a1.6,1.6,0,0,1-1.6-1.62h0a1.6,1.6,0,0,1,1-1.49l15.71-7.23-7.42-29.52"/><path class="cls-11" d="M548.27,456.05c.37-1.17,1.05-2.48,1.74-2.77l16.66-7.18c9.18,3.72,21.06.88,21.06.88l.92,12.54a.76.76,0,0,1-.76.75l-39.35-.21C547.73,460.06,548.25,456.09,548.27,456.05Z"/><path class="cls-37" d="M563.06,446.82a19.18,19.18,0,0,1,2.35,3.94"/><path class="cls-37" d="M561,448.07a17.9,17.9,0,0,1,1.93,3.36"/><path class="cls-37" d="M559.19,449a23.67,23.67,0,0,1,1.81,3.08"/><line class="cls-37" x1="588.43" y1="457.56" x2="548.09" y2="457.35"/><path class="cls-37" d="M588.07,451.56s-9.34.07-10.18,5.95"/><path class="cls-37" d="M553.42,451.81s2.7,3.82,3.23,5.58"/><path class="cls-38" d="M569,316.16s-22.54,50.39-21.35,68.24c1.11,16.62,13.71,58.71,13.71,58.71l27-4.95s-12.92-52-12.25-57.36,17.17-42.39,17.17-42.39,6.38-8.72,4.19-23.71"/><path class="cls-33" d="M583.9,439S571.3,386.51,572,381.13s16.29-41.7,16.29-41.7"/><line class="cls-33" x1="587.2" y1="433.2" x2="560.1" y2="438.66"/><path class="cls-9" d="M620.72,405.78l12.6,26.36,3.07,8.82-32,14.77a1.6,1.6,0,0,1-2.13-.78h0a1.62,1.62,0,0,1,.3-1.8l11.16-13.21-14.41-26.83"/><path class="cls-11" d="M601.36,456.73c-.16-1.21-.09-2.69.41-3.25l12-13.56c9.89-.52,19.45-8.14,19.45-8.14l6.14,11a.75.75,0,0,1-.37,1l-35.71,16.5C602.58,460.59,601.37,456.77,601.36,456.73Z"/><path class="cls-37" d="M610.85,442.1a19.52,19.52,0,0,1,3.8,2.57"/><path class="cls-37" d="M609.48,444.12a17.76,17.76,0,0,1,3.17,2.22"/><path class="cls-37" d="M608.26,445.7a25.64,25.64,0,0,1,3,2"/><line class="cls-37" x1="638.38" y1="441.07" x2="601.76" y2="457.98"/><path class="cls-37" d="M635.5,435.79s-8.43,4-6.7,9.7"/><path class="cls-37" d="M604.23,450.7s4.06,2.32,5.29,3.69"/><path class="cls-38" d="M586.85,317.69s-8.59,47.58-4.53,65c4.53,19.49,24.08,52.51,24.08,52.51l24.35-12.1s-21-40.14-21-48.81c0-5.42,4.81-38.81,4.81-38.81s4.81-9.68.11-24.09"/><path class="cls-33" d="M625.14,425.9s-21-39.24-21-50.41c0-5.42,3.33-30.69,4.81-38.82s4.38-17.52.11-24.08"/><path class="cls-33" d="M581.28,366.53c1.28-13.37,2.79-31.32,4.83-47.31"/><path class="cls-33" d="M600.41,319.22s1.65,4.1,10.59,6.47"/><path class="cls-33" d="M582.21,320.19s-1.34,9.81-.56,11.1c.36.6,3.19,1.13,3.19,1.13"/><path class="cls-33" d="M565.65,324s5.4.14,8.5-3.32"/><line class="cls-33" x1="628.57" y1="418.88" x2="603.88" y2="430.83"/><path class="cls-11" d="M576.54,244.73s-10.24,2.94-11.71,22.56c-1.39,8,1.95,52.79,1.95,52.76,24.8,4.28,51.23-3.4,51.23-3.4s-4.63-28-6.39-38.57C607.2,251.64,588.91,246,588.91,246Z"/><path class="cls-9" d="M580.84,244.91a135.73,135.73,0,0,0-15.42-21.08c-12.32-13.71-30.92-25.22-30.92-25.22s-12.57,8.84-6.81,13.46c7.64,5.16,17.41,15.41,24.85,24.67,4.64,5.78,14,23.49,14,23.49"/><path class="cls-9" d="M531.24,214.41c-4.41-3.3-18.76-10.75-18.6-11.87s5.23,1.44,5.19.5-7.59-5.4-7.14-6.48c.61-1.45,8.1,3.53,8.1,3.53s-7.93-5.87-7-7c.64-.79,6.9,3.41,9.49,4.72-2.63-1.78-6.55-5.15-5.87-6s5,2,8.42,3.92c-2-1.42-5.57-4.19-5-5s11.61,4.8,22,12"/><path class="cls-9" d="M599.63,277.59s-9.2,18.3-19,28.42c-12.79,13.27-33.21,22.6-33.21,22.6s-12.26-9.27-6.34-13.69c7.82-4.88,20.19-14.59,28-23.59,4.84-5.62,12.58-23.19,12.58-23.19"/><path class="cls-9" d="M544.76,312.71c-4.52,3.14-19.12,10.09-19,11.21s5.28-1.25,5.2-.31-7.77,5.13-7.36,6.22c.57,1.48,8.23-3.24,8.23-3.24s-8.14,5.58-7.28,6.72c.61.81,7-3.17,9.65-4.38-2.69,1.67-6.73,4.91-6.08,5.74s5.06-1.8,8.56-3.63c-2.08,1.35-5.71,4-5.15,4.78s11.75-4.82,22.06-10.52"/><path class="cls-11" d="M581.27,263.41c-2.56,8.61-9.33,22.87-9.33,22.87L590.31,296s9.47-11.56,13.05-25.44"/><path class="cls-37" d="M590.31,296s10.28-14.36,12.07-22.12"/><path class="cls-37" d="M571.94,286.28s6.84-13.23,8.27-19.64"/><path class="cls-11" d="M564.49,273.12c-.23-7.19-3.69-22.22-14-36l16.24-13s14.27,11.42,18.34,21.5"/><path class="cls-9" d="M573.34,224s-4.15,11.49-.46,15.23c1.92,1.94,7.58,2.28,10,.35,1.79-1.43,4.43-10.26,3.42-11.81C582.42,221.85,573.34,224,573.34,224Z"/><path class="cls-15" d="M575.65,229.41s-2.22,2.71-2.13,3.55,2,1.14,2,1.14"/><path class="cls-3" d="M573.3,234.87l5.2,1.32a3.41,3.41,0,0,1-4.11,1.69C572.39,237.22,573.3,234.87,573.3,234.87Z"/><path class="cls-16" d="M573.6,228.21a4.89,4.89,0,0,0-.35.73c-.19.46.58.68.76.21a5.39,5.39,0,0,0,.22-.68.35.35,0,0,0-.63-.26Z"/><path class="cls-17" d="M575.44,227.2a1.38,1.38,0,0,0-2-.45"/><path class="cls-16" d="M579.45,230.28a6.81,6.81,0,0,0-.31.74c-.16.48.61.7.76.21a4.12,4.12,0,0,0,.18-.69c.07-.36-.44-.64-.63-.26Z"/><path class="cls-17" d="M579.43,228.25a2.58,2.58,0,0,1,2.51,1.38"/><path class="cls-9" d="M586.64,234.5,588.91,246s-8.69,6.52-13.5-.42l-.14-7.53Z"/><path class="cls-12" d="M590.79,232.52a11.42,11.42,0,0,1,.36-1.23c.35-1,.88-1.83,1.26-2.79a5,5,0,0,0-1.48-5.56,8.12,8.12,0,0,1-.86-.69,7,7,0,0,1-1.1-2.18,3,3,0,0,0-1.25-1.52c-1.36-.73-3.18.25-4.54-.47a6.6,6.6,0,0,1-.8-.59c-2-1.47-4.17-1.13-6.29-.36a6.73,6.73,0,0,0-2.15,1.39c-.9.71-2.16.66-3.06,1.35a4,4,0,0,0-1.21,3.25,3,3,0,0,0,.2,1.27,2.41,2.41,0,0,0,1.22,1.09,7.84,7.84,0,0,0,3.88.25c1.27-.1,2.73-1,4-.53s1.51,1.93,3,2c.59,0,1.3-.06,1.65.41s.18,1.41.5,2a13.22,13.22,0,0,0,1.18,1.63c.75,1.07,1.81,1.8,1.43,3.19-.26,1-1.33,2.51-.89,3.53.29.68,1.77.66,2.89-.19s1.5-2.55,1.79-3.89C590.58,233.46,590.67,233,590.79,232.52Z"/><path class="cls-9" d="M585.48,232.75c1.1-1.78,2.17-1.64,2.84-.81.9,1.11-.33,3.77-1,4.27-1.34,1-2.51,1.07-2.75-.08"/><path class="cls-13" d="M575.72,241a15.85,15.85,0,0,0,7.57-1.84"/><path class="cls-37" d="M564.29,270.47s.28-11.23-1-14.66"/><path class="cls-37" d="M574.3,247.65s2,3.55,7.57,3.43c6.26-.13,8.85-4.33,8.85-4.33"/><path class="cls-9" d="M465.58,188.18c-.62,5.31-4.56,17.62-3.79,18.12s2.63-4.23,3.18-3.71-1.53,7.68-.61,8c1.24.42,2.88-6.66,2.88-6.66s-1.35,7.8-.16,7.87c.84.05,2.27-5.58,2.94-7.76-.41,2.44-1,6.3-.14,6.34s1.86-3.3,2.61-6.29c-.28,1.91-1.17,5.7-.36,5.76s3.74-8.54,5.61-19.27"/><path class="cls-9" d="M481.1,134.22c3.81,28.06-4.55,61.76-4.55,61.76L465,193.49s4.35-30.43-.54-57.17"/><path class="cls-18" d="M456.68,109.22A26.18,26.18,0,0,1,472.91,115c7.73,6.07,9.67,20.07,9.67,20.07l-18.28,3.65s-1-11.8-1.1-15.84"/><path class="cls-19" d="M463.64,138.67a52.74,52.74,0,0,0-2.24-10.28"/><rect class="cls-44" x="581.24" y="103.52" width="23.04" height="23.04" transform="translate(548.11 -487.12) rotate(74.78)"/><rect class="cls-44" x="75.94" y="360.3" width="11.33" height="11.33" transform="translate(454.9 330.74) rotate(97.18)"/><circle class="cls-45" cx="643.62" cy="380.09" r="9.11" transform="translate(175.56 962.87) rotate(-81.79)"/><path class="cls-44" d="M285.82,68.43a4.56,4.56,0,1,1-4.56-4.56A4.56,4.56,0,0,1,285.82,68.43Z"/><path class="cls-44" d="M663.42,269.13a4.56,4.56,0,1,1-4.56-4.55A4.56,4.56,0,0,1,663.42,269.13Z"/><path class="cls-44" d="M668,363.14a4.56,4.56,0,1,1-4.56-4.55A4.56,4.56,0,0,1,668,363.14Z"/><path class="cls-45" d="M70.8,330.08a4.56,4.56,0,1,1-4.56-4.55A4.56,4.56,0,0,1,70.8,330.08Z"/><path class="cls-44" d="M180.91,85.24l.48,3a2.73,2.73,0,0,0,2.76,2.3l2,0a2.73,2.73,0,0,1,2.75,2.3l.32,2a2.74,2.74,0,0,0,2.76,2.3l2,0a2.72,2.72,0,0,1,2.75,2.29l.33,2a2.74,2.74,0,0,0,2.75,2.3l2.38,0"/><path class="cls-44" d="M93.54,284.48l-.94-2.92a2.73,2.73,0,0,0-3.08-1.85l-2,.35a2.74,2.74,0,0,1-3.07-1.85l-.62-1.92a2.75,2.75,0,0,0-3.08-1.85l-2,.35A2.74,2.74,0,0,1,75.71,273L75.09,271A2.73,2.73,0,0,0,72,269.18l-2.35.41"/><path class="cls-44" d="M560.64,163.78l3.06-.26a2.72,2.72,0,0,0,2.5-2.58l.11-2a2.71,2.71,0,0,1,2.49-2.57l2-.17a2.74,2.74,0,0,0,2.5-2.58l.11-2A2.72,2.72,0,0,1,575.9,149l2-.18a2.72,2.72,0,0,0,2.49-2.57l.13-2.38"/><path class="cls-44" d="M655.1,208.05l-2.92.94a2.74,2.74,0,0,0-1.86,3.07l.34,2a2.73,2.73,0,0,1-1.86,3.07l-1.91.61a2.73,2.73,0,0,0-1.86,3.07l.34,2a2.74,2.74,0,0,1-1.86,3.07l-1.92.61a2.74,2.74,0,0,0-1.86,3.07l.41,2.35"/><path class="cls-44" d="M671.71,341l2.55,1.71a2.72,2.72,0,0,0,3.56-.44l1.34-1.5a2.74,2.74,0,0,1,3.56-.44l1.67,1.12A2.72,2.72,0,0,0,688,341l1.35-1.5a2.74,2.74,0,0,1,3.56-.44l1.68,1.13a2.73,2.73,0,0,0,3.55-.44l1.6-1.78"/><line class="cls-45" x1="645.04" y1="245.67" x2="634.5" y2="252.17"/><line class="cls-45" x1="538.7" y1="109.06" x2="529.02" y2="116.78"/><line class="cls-45" x1="323.37" y1="126.97" x2="311.32" y2="124.14"/><line class="cls-45" x1="95.1" y1="179.39" x2="85.93" y2="171.07"/></g></g></svg>