<svg height="512" viewBox="0 0 512 512" width="512" xmlns="http://www.w3.org/2000/svg"><rect fill="#f06423" height="320" rx="16" width="480" x="16" y="148"/><rect fill="#faa51e" height="304" rx="16" width="480" x="16" y="148"/><path d="m48 116h176a32 32 0 0 1 32 32v288a0 0 0 0 1 0 0h-208a16 16 0 0 1 -16-16v-288a16 16 0 0 1 16-16z" fill="#738ca0"/><path d="m272 116h208a0 0 0 0 1 0 0v288a32 32 0 0 1 -32 32h-176a16 16 0 0 1 -16-16v-288a16 16 0 0 1 16-16z" fill="#738ca0" transform="matrix(-1 0 0 -1 736 552)"/><path d="m256 436a32 32 0 0 0 -32-32h-176a16 16 0 0 1 -16-16v-256a16 16 0 0 1 16-16h176a32 32 0 0 1 32 32z" fill="#d7e6e6"/><path d="m256 436a32 32 0 0 1 32-32h176a16 16 0 0 0 16-16v-256a16 16 0 0 0 -16-16h-176a32 32 0 0 0 -32 32z" fill="#aac3d7"/><circle cx="144" cy="116" fill="#91be41" r="72"/><path d="m130.667 149.333a11.963 11.963 0 0 1 -8.486-3.515l-16-16a12 12 0 1 1 16.971-16.97l7.515 7.514 31.514-31.514a12 12 0 0 1 16.971 16.97l-40 40a11.963 11.963 0 0 1 -8.485 3.515z" fill="#d7e6e6"/><circle cx="368" cy="116" fill="#f05555" r="72"/><path d="m384.971 116 15.514-15.515a12 12 0 0 0 -16.97-16.97l-15.515 15.514-15.515-15.514a12 12 0 0 0 -16.97 16.97l15.514 15.515-15.514 15.515a12 12 0 1 0 16.97 16.97l15.515-15.514 15.515 15.514a12 12 0 0 0 16.97-16.97z" fill="#d7e6e6"/><rect fill="#aac3d7" height="24" rx="12" width="120" x="104" y="212"/><circle cx="76" cy="224" fill="#aac3d7" r="12"/><rect fill="#aac3d7" height="24" rx="12" width="120" x="104" y="276"/><circle cx="76" cy="288" fill="#aac3d7" r="12"/><rect fill="#aac3d7" height="24" rx="12" width="120" x="104" y="340"/><circle cx="76" cy="352" fill="#aac3d7" r="12"/><g fill="#738ca0"><rect height="24" rx="12" width="120" x="328" y="212"/><circle cx="300" cy="224" r="12"/><rect height="24" rx="12" width="120" x="328" y="276"/><circle cx="300" cy="288" r="12"/><rect height="24" rx="12" width="120" x="328" y="340"/><circle cx="300" cy="352" r="12"/></g></svg>