<svg id="Capa_1" enable-background="new 0 0 512 512" height="512" viewBox="0 0 512 512" width="512" xmlns="http://www.w3.org/2000/svg"><g><g><path d="m232.766 7.5v107.077c78.106 0 141.423 63.317 141.423 141.423h107.077c0-137.243-111.257-248.5-248.5-248.5z" fill="#f6e266"/></g><g><path d="m422.677 200.946c0 18.894-2.041 37.309-5.881 55.054h64.471c0-83.705-41.388-157.742-104.814-202.769 29.132 41.906 46.224 92.81 46.224 147.715z" fill="#f1d333"/></g><g><path d="m332.767 356.001c-25.592 25.593-60.948 41.422-100.001 41.422s-74.408-15.829-100.001-41.422l-75.715 75.715c44.97 44.97 107.095 72.784 175.716 72.784s130.746-27.814 175.716-72.784z" fill="#c8ea73"/></g><g><path d="m163.57 460.053c-33.875 0-66.228-6.51-95.887-18.332 43.895 39.046 101.713 62.779 165.083 62.779 68.621 0 130.746-27.814 175.716-72.784l-54.773-54.773c-47.328 51.106-114.991 83.11-190.139 83.11z" fill="#b7e445"/></g><g><path d="m374.189 256c0 39.053-15.829 74.408-41.422 100.001l42.858 42.858c36.561-36.561 59.174-87.069 59.174-142.859z" fill="#dd5790"/></g><g><path d="m416.796 256c-9.971 46.074-32.189 87.579-63.086 120.943l21.916 21.916c36.561-36.561 59.174-87.069 59.174-142.859z" fill="#da387d"/></g><g><path d="m91.343 256c0-78.106 63.317-141.423 141.423-141.423v-60.61c-111.579 0-202.032 90.453-202.032 202.033 0 55.79 22.613 106.298 59.174 142.859l42.858-42.858c-25.593-25.593-41.423-60.948-41.423-100.001z" fill="#9dc6fb"/></g><g><g><circle cx="232.766" cy="208.522" fill="#f1d0a5" r="40.407"/></g><g><path d="m252.864 173.474c3.403 5.921 5.358 12.779 5.358 20.098 0 22.316-18.091 40.407-40.406 40.407-7.319 0-14.177-1.956-20.098-5.358 6.972 12.132 20.051 20.309 35.048 20.309 22.316 0 40.406-18.091 40.406-40.407.001-14.998-8.176-28.076-20.308-35.049z" fill="#f1b986"/></g><g><g><path d="m158.014 289.335v34.346h149.504v-34.346c0-22.316-18.091-40.406-40.406-40.406h-68.691c-22.316 0-40.407 18.09-40.407 40.406z" fill="#e49542"/></g><g><path d="m267.112 248.929h-24.244c22.316 0 40.406 18.091 40.406 40.406v34.346h24.244v-34.346c0-22.315-18.09-40.406-40.406-40.406z" fill="#e28424"/></g></g></g><g><path d="m450.864 121.895c-2.174-3.527-6.795-4.623-10.32-2.449-3.526 2.174-4.623 6.795-2.449 10.32 22.032 35.739 34.259 76.64 35.559 118.734h-92.151c-3.797-76.156-65.077-137.436-141.233-141.233v-92.152c69.109 2.129 133.654 33.596 178.039 87.075 2.646 3.187 7.375 3.627 10.561.981 3.188-2.646 3.627-7.374.982-10.562-48.847-58.854-120.68-92.609-197.082-92.609-4.142 0-7.5 3.357-7.5 7.5v39.109c-44.972 1.554-87.222 17.073-122.609 45.137-36.231 28.733-62.267 69.139-73.311 113.773-.995 4.021 1.458 8.087 5.479 9.082.604.149 1.21.222 1.807.222 3.368 0 6.429-2.284 7.274-5.7 20.91-84.503 94.872-144.227 181.36-147.504v45.646c-78.647 3.919-141.427 69.132-141.427 148.735 0 37.269 13.599 72.448 38.448 99.872l-32.271 32.271c-33.447-36.065-51.79-82.693-51.79-132.143 0-4.598.159-9.174.472-13.601.292-4.133-2.821-7.719-6.953-8.011-4.137-.302-7.718 2.82-8.01 6.953-.337 4.777-.509 9.709-.509 14.658 0 53.457 19.9 103.852 56.176 142.756l-27.66 27.66c-2.929 2.93-2.929 7.678 0 10.607 48.35 48.351 112.638 74.978 181.024 74.978 68.379 0 132.664-26.627 181.013-74.977 2.929-2.93 2.929-7.678 0-10.606l-27.657-27.661c34.572-37.076 54.255-84.595 56.026-135.256h39.118c4.142 0 7.5-3.357 7.5-7.5 0-47.507-13.107-93.88-37.906-134.105zm-218.094 375.105c-61.872 0-120.183-23.154-165.033-65.36l65.168-65.168c22.681 20.482 51.411 33.662 81.689 37.344 4.12.502 7.851-2.428 8.351-6.54s-2.428-7.851-6.54-8.351c-29.441-3.579-57.26-17.155-78.332-38.229-.016-.016-.033-.029-.049-.045-25.266-25.289-39.181-58.901-39.181-94.651 0-73.831 60.054-133.899 133.88-133.922.016 0 .031.002.047.002 73.839 0 133.911 60.068 133.92 133.905 0 .005-.001.01-.001.015 0 35.772-13.931 69.403-39.225 94.697-.005.005-.009.011-.015.016-20.967 20.95-48.624 34.503-77.881 38.165-4.11.515-7.025 4.264-6.51 8.374.514 4.11 4.259 7.016 8.374 6.511 30.083-3.766 58.641-16.926 81.202-37.292l65.16 65.168c-44.851 42.207-103.158 65.361-165.024 65.361zm142.744-108.858-32.27-32.274c23.174-25.576 36.561-57.898 38.259-92.369h45.639c-1.756 46.656-19.88 90.411-51.628 124.643z"/><path d="m307.518 331.181c4.142 0 7.5-3.357 7.5-7.5v-34.346c0-26.278-21.268-47.672-47.494-47.896 8.14-8.591 13.149-20.176 13.149-32.917 0-26.416-21.491-47.906-47.907-47.906s-47.906 21.49-47.906 47.906c0 12.741 5.009 24.326 13.149 32.917-26.226.223-47.494 21.618-47.494 47.896v34.346c0 4.143 3.358 7.5 7.5 7.5zm-74.752-155.565c18.145 0 32.907 14.762 32.907 32.906s-14.762 32.906-32.907 32.906-32.906-14.762-32.906-32.906 14.762-32.906 32.906-32.906zm-67.252 113.719c0-18.145 14.762-32.906 32.907-32.906h68.691c18.145 0 32.906 14.762 32.906 32.906v26.846h-27.427v-12.703c0-4.143-3.358-7.5-7.5-7.5s-7.5 3.357-7.5 7.5v12.703h-49.65v-12.703c0-4.143-3.358-7.5-7.5-7.5s-7.5 3.357-7.5 7.5v12.703h-27.427z"/></g></g></svg>